<svg version="1.2" xmlns="http://www.w3.org/2000/svg" viewBox="0 0 897 490" width="897" height="490">
	<title>FullLogo_Cookies&amp;ComedyFilmFestival-ai</title>
	<style>
		.s0 { fill: #ffffff } 
		.s1 { fill: #0c0a3a } 
	</style>
	<g id="Layer 1">
		<g id="&lt;Group&gt;">
			<g id="&lt;Group&gt;">
				<path id="&lt;Compound Path&gt;" class="s0" d="m303.8 328.2q3.7 3.8 4.4 9 1.8 12.4-3.6 22.6-5.5 10.3-15.9 16.7-10.4 6.5-22.6 8.2-20 2.9-33-7.7-13.1-10.6-16-30.9-2.3-15.6 3.8-34.5 6.1-18.9 18.6-33.1 12.5-14.2 28.5-16.6 11.9-1.7 19.8 4.9 7.9 6.5 9.7 18.7 1.1 7.9-0.9 16.8-2 8.8-7.2 15.3-5.3 6.4-13.7 7.6-5.4 0.8-9.9-1.8-4.4-2.6-5.2-8.1-0.6-3.9 1.5-5.8 5.6-6.3 8.8-12.2 3.2-5.9 2.2-12.3-0.5-3.5-2.4-5.4-1.9-1.8-5.1-1.4-7.7 1.1-12.7 9.3-5 8.2-7 18.7-2 10.5-1 17.7 1.6 10.6 7.4 17.7 5.8 7.2 15.7 5.7 6.5-0.9 10.3-4.4 3.8-3.4 8.2-9.6 2.7-3.9 4.5-5.9 1.9-1.9 4.1-2.2 5-0.7 8.7 3z"/>
				<path id="&lt;Compound Path&gt;" fill-rule="evenodd" class="s0" d="m384.1 257.5q9.4 5.5 15.1 15.4 5.7 9.9 7.4 21.5 2.2 15.3-2.8 32.7-5.1 17.4-16.5 30.1-11.4 12.6-27.3 14.9-11.8 1.7-21.2-3.7-9.4-5.5-15.2-15.4-5.9-9.8-7.6-21.5-2.2-15.3 2.8-32.7 5.1-17.4 16.5-30.1 11.5-12.6 27.3-14.9 12.1-1.8 21.5 3.7zm-33.7 66.8q3.6 4.2 9.5 3.4 7.2-1 12.5-8 5.3-7 7.8-16 2.4-9.1 1.4-16-0.9-6.2-4.4-10.6-3.5-4.4-9.2-3.6-7.2 1-12.6 8-5.5 7-7.9 16.2-2.5 9.2-1.5 16.1 0.9 6.2 4.4 10.5z"/>
				<path id="&lt;Compound Path&gt;" class="s0" d="m538 229.2q3.7 4.2 4.7 10.9 1.8 12.3-3.1 32.2-8 32.3-4.9 53.3 0.2 1.7 1.2 5 1 3.3 1.2 4.7 0.7 5-2.3 7.8-3 2.9-8.2 3.6-7.9 1.2-14.1-3.8-6.1-4.9-7.3-12.8-0.8-5.7 0.3-12 1.1-6.4 3.4-15.3 0.1-1 1.2-5.6 1.1-4.6 0.8-6.6l-0.1-0.7-1.1-0.4q-2.2 0.4-4.7 4.4-2.4 4-6.7 12.5-7.1 13.9-12.8 21.8-5.7 7.9-12.6 8.9-5.7 0.8-9-2.8-3.3-3.5-4.1-9.5-0.9-6.2-0.9-13.2-0.1-7.1-0.1-8.9 0.4-13.2-0.9-22.1-0.8-5.6-2.3-5.4-5.2 0.7-6.6 15.3-1.4 14.6-0.6 31.8 0.9 17.2 1.9 24.1 0.8 6-2.2 9.7-3 3.7-8.9 4.5-11.4 1.7-17.8-6.3-6.5-8.1-8.3-20.4-2.5-17.3 3-40.2 5.5-22.9 17-43.1 11.5-20.1 26.1-29.2 5.5-3.6 11-4.4 6.9-1 11.1 2.8 4.2 3.8 5.3 11 0.9 6.4-0.1 13.9-0.9 7.4-3 17.3-2 10.4-2.8 15.7-0.7 5.3 0 10.2 0.6 4 3.5 3.6 3.5-0.5 6.9-6.7 3.4-6.2 8.2-18.5 7.4-18.5 13.6-28.7 6.2-10.3 14.9-11.5 6.4-1 10.2 3.1z"/>
				<path id="&lt;Compound Path&gt;" fill-rule="evenodd" class="s0" d="m635.9 277.7q3.8 3.9 4.5 9.1 1.8 12.3-3.7 22.6-5.4 10.3-15.8 16.7-10.5 6.4-22.6 8.2-20 2.9-33.1-7.7-13-10.6-15.9-30.9-2.3-15.6 3.8-34.7 6-19 18.5-33.1 12.5-14.1 28.6-16.4 11.9-1.7 19.8 4.7 7.8 6.5 9.6 18.6 1.4 9.9-1.3 19.1-2.7 9.2-9.5 15.7-6.7 6.4-16.6 7.8-7.4 1.1-14.6-1.2-7.1-2.2-11-8l0.4 4.8q1.6 10.9 7.3 18 5.7 7.1 15.9 5.6 6.4-0.9 10.2-4.3 3.8-3.5 8.2-9.7 2.7-3.9 4.6-5.8 1.8-2 4.1-2.3 4.9-0.7 8.6 3.2zm-57.6-18.3q10.7-1.6 18.6-9 7.9-7.5 6.4-17.6-0.9-5.9-5.8-5.2-7.9 1.1-13.6 11.7-5.7 10.5-6.8 20.3z"/>
				<path id="&lt;Compound Path&gt;" fill-rule="evenodd" class="s0" d="m752.7 122.3q5.4 6 6.6 14.4 1.2 7.6 0.9 15.7-0.2 8.2-1.3 19.4-1.3 12.1-4.5 33.5-4.2 27.1-5.8 45.6-1.6 18.4 0.7 34 1.3 9.1 6 21.1l0.2 1q0.5 3.7-4.5 6.4-5 2.8-9.5 3.4-10.4 1.5-16.6-4.3-6.3-5.7-7.9-16.4-4.4 9.3-12.9 15.9-8.5 6.7-18.4 8.1-10.4 1.5-18.6-2.8-8.2-4.4-13.4-12.6-5.1-8.3-6.5-18.4-2.4-16.3 3.3-33.1 5.6-16.7 18-28.6 12.4-11.9 28.8-14.3 14.6-2.1 24.8 5.5 0.3-3.1 0.9-6.6 0.6-3.5 1.1-7.6 3.2-21.1 4.5-36.5 1.3-15.3 0.1-30.8-0.5-6.5 2-11.2 2.5-4.6 8.5-5.5 8.1-1.2 13.5 4.7zm-63.5 153.6q3.8 4.5 9.5 3.7 5.5-0.8 10.1-7.5 4.5-6.8 6.8-15.4 2.3-8.7 1.5-13.9-0.7-4.9-4.1-7.6-3.4-2.7-8.6-1.9-6.4 0.9-11.2 6.2-4.8 5.2-7.2 12.5-2.3 7.3-1.4 13.5 0.8 5.9 4.6 10.4z"/>
				<path id="&lt;Compound Path&gt;" class="s0" d="m872.7 183.2q4 1.4 4.5 5.3 0.2 1-0.4 3.6-10.1 28-13.7 86.9-1.1 22.4-3.8 37.3-2.8 14.9-10.7 28.3-7.9 13.4-23.2 25-12.7 9.4-31 12-12.9 1.9-25.4-0.9-12.6-2.9-21.6-10.9-9-8.1-10.9-21.2-1.4-9.9 3-18.7 4.4-8.9 14-10.3 6.2-0.9 11.9 1.5 5.6 2.3 13.9 7.4 9.7 5.9 16.7 8.6 6.9 2.6 15.3 1.4 5.7-0.8 10.9-3.6 11-5.6 16.4-26.3 5.3-20.8 5.9-39.3-7.6 15.3-18.2 27-10.5 11.8-23.4 13.6-15.6 2.3-23.8-9.7-8.1-11.9-10.6-29.2-1.9-13.1-0.3-31.3 1.7-18.2 8.7-32.5 7-14.2 20.4-16.2 5.4-0.8 8.7 2.7 3.3 3.4 4.1 9.1 1 7.2-0.2 14.3-1.2 7.1-4.2 17.9-3 11.1-4.2 17.9-1.3 6.9-0.3 13.8 0.6 4.5 3 7.8 2.4 3.3 6.6 2.7 7.2-1 11-10.3 3.8-9.3 8.2-28.1 3.6-16.7 7.2-27.4 3.7-10.8 10.2-19.1 6.5-8.2 16.9-9.7 4.4-0.7 8.4 0.6z"/>
			</g>
			<g id="&lt;Group&gt;">
				<path id="&lt;Compound Path&gt;" class="s0" d="m189.6 201.7q3.7 3.8 4.4 9 1.8 12.3-3.6 22.6-5.5 10.3-15.9 16.7-10.5 6.4-22.6 8.2-20 2.9-33-7.7-13.1-10.6-16-30.9-2.3-15.6 3.8-34.6 6.1-18.9 18.6-33.1 12.4-14.2 28.5-16.5 11.9-1.7 19.8 4.8 7.9 6.6 9.7 18.7 1.1 7.9-0.9 16.8-2 8.9-7.2 15.3-5.3 6.5-13.7 7.7-5.5 0.8-9.9-1.8-4.4-2.7-5.2-8.1-0.6-4 1.4-5.8 5.7-6.4 8.9-12.3 3.2-5.9 2.2-12.3-0.5-3.5-2.4-5.3-1.9-1.9-5.1-1.4-7.7 1.1-12.7 9.3-5 8.1-7 18.7-2 10.5-1 17.7 1.6 10.6 7.4 17.7 5.8 7.1 15.7 5.7 6.5-1 10.3-4.4 3.7-3.5 8.2-9.7 2.7-3.9 4.5-5.8 1.9-1.9 4.1-2.2 5-0.8 8.7 3z"/>
				<path id="&lt;Compound Path&gt;" fill-rule="evenodd" class="s0" d="m269.9 131q9.4 5.4 15.1 15.3 5.7 9.9 7.4 21.6 2.2 15.3-2.8 32.7-5.1 17.4-16.5 30-11.4 12.7-27.3 15-11.8 1.7-21.2-3.8-9.4-5.4-15.3-15.3-5.8-9.9-7.5-21.5-2.2-15.4 2.8-32.8 5.1-17.4 16.5-30 11.4-12.7 27.3-14.9 12.1-1.8 21.5 3.7zm-33.7 66.7q3.6 4.3 9.5 3.4 7.2-1 12.5-8 5.3-6.9 7.8-16 2.4-9.1 1.4-16-0.9-6.2-4.4-10.6-3.6-4.4-9.2-3.6-7.2 1.1-12.6 8-5.5 7-7.9 16.2-2.5 9.2-1.5 16.1 0.9 6.2 4.4 10.5z"/>
				<path id="&lt;Compound Path&gt;" fill-rule="evenodd" class="s0" d="m367.6 116.8q9.4 5.4 15.1 15.4 5.7 9.9 7.4 21.5 2.2 15.3-2.8 32.7-5.1 17.4-16.5 30.1-11.4 12.6-27.3 14.9-11.8 1.7-21.2-3.7-9.4-5.5-15.2-15.4-5.9-9.9-7.6-21.5-2.2-15.3 2.8-32.7 5.1-17.4 16.5-30.1 11.5-12.6 27.3-14.9 12.1-1.8 21.5 3.7zm-33.6 66.7q3.5 4.3 9.4 3.5 7.2-1.1 12.5-8 5.3-7 7.8-16.1 2.5-9 1.4-16-0.9-6.1-4.4-10.5-3.5-4.5-9.2-3.6-7.2 1-12.6 8-5.5 7-7.9 16.2-2.5 9.2-1.5 16.1 0.9 6.2 4.5 10.4z"/>
				<path id="&lt;Compound Path&gt;" class="s0" d="m476.3 171.5q6.3-1.9 9.5-2.4 7.4-1.1 12.7 3 5.3 4 6.3 11.4 1.6 10.9-6.5 18.7-8.1 7.7-19.2 9.3-19.6 2.8-32.7-6.1-13.2-9-21.9-27.4-1.8 10.4-2.8 18.5-1 8.1-0.1 14.2 0.2 1.3 0.6 2.5 0.5 1.2 0.6 2.2 0.4 2.7-3 4.3-3.5 1.7-7.2 2.2-7.6 1.1-13.3-2.2-5.7-3.4-6.7-10.8-0.9-5.7 0.9-13.3 1.9-7.6 5.8-18.7 2.6-6.7 4-12.2 10.3-36.9 5-73.8-0.4-2.9-1.9-9.8-1.5-4.8-2.2-9.5-0.5-3.5 3.2-6.1 3.7-2.5 7.6-3.1 10.2-1.4 15.8 6.2 5.7 7.6 7.3 18.5 1.4 9.7-0.4 22.8-1.8 13.1-5 28.8l0.7-0.1q12.6-1.9 19.5-10.7 7-8.8 7.8-22.1 0.5-8.9 7.7-9.9 7.1-1.1 12.3 5.1 5.2 6.2 6.3 13.9 1.7 11.6-4 20.6-5.8 9.1-15.9 14.5-10.1 5.3-21.4 7-4.7 0.7-8.1 0.2 2.7 10.2 10.4 14.4 7.7 4.1 18.6 2.6 4.4-0.7 9.7-2.7z"/>
				<path id="&lt;Compound Path&gt;" class="s0" d="m511.5 182.8q-1.7-12.4 1.1-30.7 1.6-10.1 5.9-26 4.2-15.9 10.9-29.2 6.6-13.4 14.3-14.5 7.7-1.1 9.4 10.8 1.2 8.4 0.3 17.1-0.8 8.7-3.3 23-2.4 13-3.2 21.4-0.8 8.5 0.3 16.4 0.5 3.2 2.8 8.4 2.3 5.7 2.7 8.7 0.9 6.2-4.6 10.1-5.4 4-12.4 5-10.6 1.5-16.7-3.9-6.1-5.4-7.7-16.6zm48.6-144.4q5 3.8 5.9 10 0.9 6.2-2.8 11.4-3.6 5.2-9.8 6.1-6.2 0.9-11.2-3.1-5-3.9-5.9-10.1-0.9-6.2 2.8-11.3 3.7-5 9.9-5.9 6.2-0.9 11.1 2.9z"/>
				<path id="&lt;Compound Path&gt;" fill-rule="evenodd" class="s0" d="m648.1 132.8q3.8 3.9 4.5 9.1 1.8 12.4-3.6 22.6-5.5 10.3-15.9 16.7-10.5 6.5-22.6 8.2-20 2.9-33.1-7.7-13-10.6-15.9-30.9-2.3-15.6 3.8-34.6 6.1-19.1 18.5-33.2 12.5-14 28.6-16.4 11.9-1.7 19.8 4.8 7.8 6.4 9.6 18.5 1.4 9.9-1.3 19.1-2.7 9.3-9.4 15.7-6.8 6.4-16.7 7.8-7.4 1.1-14.6-1.1-7.1-2.3-11-8l0.4 4.7q1.6 10.9 7.3 18 5.7 7.1 15.9 5.7 6.4-1 10.2-4.4 3.8-3.5 8.2-9.7 2.7-3.9 4.6-5.8 1.8-1.9 4.1-2.2 4.9-0.8 8.6 3.1zm-57.5-18.3q10.6-1.5 18.5-9 7.9-7.4 6.4-17.6-0.9-5.9-5.8-5.2-7.9 1.1-13.6 11.7-5.7 10.5-6.8 20.3z"/>
				<path id="&lt;Compound Path&gt;" class="s0" d="m716.5 98q-6.7-0.5-9.6-0.1-7.5 1.1-6.9 5.3 0.5 3.2 4.3 5.9 3.8 2.8 12.3 7.3 12.6 6.6 19.8 12.6 7.2 6 8.5 14.9 1.4 9.9-4.9 17.7-6.4 7.7-16.6 12.3-10.2 4.7-20 6.1-8.5 1.2-18.4-0.6-10-1.8-17.6-7.1-7.6-5.2-8.8-13.8-1-6.5 2.3-12.6 3.3-6.2 9.5-7.1 2.7-0.4 6.1 1.2 3.3 1.5 8.6 4.8 7.2 4.5 12.6 6.6 5.4 2.1 11 1.3 4-0.6 6.6-3.6 2.6-3 2-6.7-0.8-5.7-6.6-10.3-5.9-4.6-17.4-11-13.8-7.9-21.2-14-7.5-6.1-8.7-14.8-1.3-8.9 3.8-15.7 5-6.8 13.5-10.8 8.5-4 17-5.2 13.8-2 26.8 1.5 13.1 3.6 14.8 15.9 1.2 7.7-2.4 13.4-3.6 5.7-11.3 6.8-3 0.5-9.1-0.2z"/>
			</g>
			<g id="&lt;Group&gt;">
				<path id="&lt;Compound Path&gt;" fill-rule="evenodd" class="s0" d="m151.7 366.5q1.9 1 2.4 4.4 0.9 6.5-5.2 11.6-6 5.2-12.7 6.2-9.2 1.3-21.2-3.5-7.2 11.6-18.8 19.7-11.5 8.2-24.9 10.1-10.1 1.5-19.8-1-9.8-2.5-16.7-9.2-6.9-6.7-8.4-17.1-1.9-13.4 6.3-26.5 8.2-13 20.8-23.4-10-13.5-12.4-30.3-2.6-17.6 3.8-34.4 6.4-16.9 20-28.3 13.7-11.5 31.5-14 13.8-2 24.9 3.8 11.1 5.8 13 19.2 1.9 13.1-5.1 28.2-7.1 15-18.7 27.8-11.7 12.8-23.5 20.3 1.7 4.8 9.4 12.3 7.6 7.5 13.2 11.2 1.1-5.2-0.1-13.3l-1.6-8.9q-1-7.2 0.5-11.9 1.4-4.8 7.3-5.7 7.2-1 11 5.1 3.8 6.2 5 14.3 1.1 7.5 0.5 15.4-0.7 7.9-3.2 14.6 9.4 3.9 17.3 2.8 3.5-0.5 5.4 0.5zm-82.7 11.8q5.7 2.9 11.9 2 4.5-0.7 9.9-3.2-13.1-6.7-24.6-19.7-4.6 6.2-3.8 12.2 0.9 5.9 6.6 8.7zm8.3-66.5q8.6-6.8 15.7-17.4 7-10.6 5.8-19.3-0.7-4.4-3.5-7.2-2.8-2.7-6.7-2.2-9.4 1.4-12.9 12-3.6 10.6-2 21.3 1 7.1 3.6 12.8z"/>
			</g>
		</g>
		<g id="&lt;Group&gt;">
			<g id="&lt;Group&gt;">
				<path id="&lt;Compound Path&gt;" class="s1" d="m183.4 195.5q3.7 3.7 4.4 8.9 1.8 12.4-3.7 22.7-5.4 10.2-15.8 16.7-10.5 6.4-22.6 8.2-20 2.9-33.1-7.7-13-10.7-15.9-30.9-2.3-15.6 3.8-34.6 6.1-18.9 18.6-33.1 12.4-14.2 28.5-16.5 11.9-1.7 19.8 4.8 7.9 6.6 9.6 18.7 1.2 7.9-0.8 16.8-2 8.9-7.3 15.3-5.2 6.5-13.6 7.7-5.5 0.8-9.9-1.9-4.4-2.6-5.2-8.1-0.6-3.9 1.4-5.7 5.7-6.4 8.8-12.3 3.2-5.9 2.3-12.3-0.5-3.5-2.4-5.4-1.9-1.8-5.1-1.4-7.7 1.2-12.7 9.3-5 8.2-7 18.7-2 10.6-1 17.7 1.5 10.7 7.4 17.8 5.8 7.1 15.7 5.7 6.4-1 10.2-4.4 3.8-3.5 8.2-9.7 2.7-3.9 4.6-5.8 1.9-1.9 4.1-2.3 5-0.7 8.7 3.1z"/>
				<path id="&lt;Compound Path&gt;" fill-rule="evenodd" class="s1" d="m263.7 124.7q9.3 5.5 15.1 15.4 5.7 9.9 7.4 21.5 2.2 15.4-2.9 32.8-5 17.4-16.4 30-11.5 12.7-27.3 15-11.9 1.7-21.3-3.8-9.3-5.4-15.2-15.3-5.8-9.9-7.5-21.5-2.2-15.4 2.8-32.8 5.1-17.4 16.5-30 11.4-12.7 27.2-15 12.2-1.7 21.6 3.7zm-33.7 66.8q3.5 4.3 9.5 3.4 7.1-1 12.5-8 5.3-6.9 7.7-16 2.5-9.1 1.5-16-0.9-6.2-4.4-10.6-3.6-4.4-9.3-3.6-7.1 1-12.6 8-5.4 7-7.9 16.2-2.4 9.2-1.4 16.1 0.9 6.2 4.4 10.5z"/>
				<path id="&lt;Compound Path&gt;" fill-rule="evenodd" class="s1" d="m361.4 110.6q9.3 5.4 15.1 15.3 5.7 9.9 7.4 21.6 2.2 15.3-2.8 32.7-5.1 17.4-16.5 30-11.4 12.7-27.3 15-11.9 1.7-21.2-3.7-9.4-5.5-15.3-15.4-5.8-9.9-7.5-21.5-2.2-15.3 2.8-32.8 5.1-17.4 16.5-30 11.4-12.6 27.3-14.9 12.1-1.8 21.5 3.7zm-33.7 66.7q3.6 4.3 9.5 3.4 7.2-1 12.5-7.9 5.3-7 7.8-16.1 2.4-9.1 1.4-16-0.9-6.2-4.4-10.6-3.6-4.4-9.3-3.6-7.1 1.1-12.6 8.1-5.4 6.9-7.8 16.1-2.5 9.2-1.5 16.1 0.9 6.2 4.4 10.5z"/>
				<path id="&lt;Compound Path&gt;" class="s1" d="m470.1 165.3q6.3-1.9 9.5-2.4 7.4-1.1 12.7 2.9 5.2 4.1 6.3 11.5 1.6 10.9-6.5 18.6-8.1 7.8-19.2 9.4-19.6 2.8-32.8-6.1-13.1-9-21.9-27.4-1.8 10.3-2.7 18.4-1 8.1-0.1 14.3 0.2 1.3 0.6 2.5 0.4 1.2 0.6 2.1 0.4 2.8-3.1 4.4-3.4 1.6-7.1 2.2-7.7 1.1-13.3-2.3-5.7-3.3-6.8-10.7-0.8-5.7 1-13.3 1.8-7.6 5.8-18.8 2.5-6.7 4-12.2 10.3-36.8 5-73.7-0.5-3-2-9.8-1.4-4.9-2.1-9.6-0.5-3.4 3.2-6 3.6-2.5 7.6-3.1 10.1-1.5 15.8 6.2 5.7 7.6 7.2 18.5 1.4 9.6-0.3 22.8-1.8 13.1-5.1 28.7l0.8-0.1q12.6-1.8 19.5-10.6 6.9-8.9 7.8-22.1 0.5-8.9 7.6-10 7.2-1 12.4 5.2 5.2 6.2 6.3 13.8 1.7 11.7-4.1 20.7-5.7 9.1-15.8 14.4-10.1 5.4-21.5 7.1-4.7 0.7-8 0.1 2.7 10.2 10.4 14.4 7.7 4.2 18.6 2.6 4.4-0.6 9.7-2.6z"/>
				<path id="&lt;Compound Path&gt;" class="s1" d="m505.3 176.6q-1.8-12.4 1.1-30.7 1.6-10.1 5.8-26 4.3-15.9 11-29.3 6.6-13.3 14.3-14.4 7.7-1.1 9.4 10.7 1.2 8.5 0.3 17.2-0.9 8.7-3.3 22.9-2.5 13-3.3 21.5-0.8 8.4 0.4 16.3 0.5 3.3 2.7 8.5 2.4 5.7 2.8 8.7 0.9 6.2-4.6 10.1-5.5 4-12.4 5-10.6 1.5-16.7-3.9-6.1-5.4-7.7-16.6zm48.6-144.4q5 3.8 5.9 10 0.9 6.2-2.8 11.4-3.7 5.2-9.8 6.1-6.2 0.9-11.2-3.1-5-3.9-5.9-10.1-0.9-6.2 2.8-11.3 3.7-5.1 9.9-6 6.1-0.9 11.1 3z"/>
				<path id="&lt;Compound Path&gt;" fill-rule="evenodd" class="s1" d="m641.9 126.6q3.7 3.9 4.5 9.1 1.8 12.3-3.7 22.6-5.4 10.3-15.9 16.7-10.4 6.4-22.5 8.2-20.1 2.9-33.1-7.7-13-10.6-16-30.9-2.2-15.6 3.9-34.7 6-19 18.5-33.1 12.5-14.1 28.6-16.4 11.9-1.7 19.7 4.7 7.9 6.5 9.7 18.6 1.4 9.9-1.3 19.1-2.7 9.2-9.5 15.7-6.8 6.4-16.6 7.8-7.5 1.1-14.6-1.2-7.2-2.2-11-8l0.4 4.8q1.6 10.9 7.3 18 5.7 7.1 15.8 5.6 6.5-0.9 10.3-4.3 3.8-3.5 8.2-9.7 2.7-3.9 4.6-5.8 1.8-1.9 4-2.3 5-0.7 8.7 3.2zm-57.6-18.3q10.7-1.5 18.5-9 7.9-7.5 6.5-17.6-0.9-5.9-5.8-5.2-8 1.1-13.6 11.7-5.7 10.5-6.8 20.3z"/>
				<path id="&lt;Compound Path&gt;" class="s1" d="m710.3 91.8q-6.7-0.5-9.7-0.1-7.4 1.1-6.8 5.3 0.5 3.2 4.3 5.9 3.8 2.7 12.3 7.3 12.6 6.5 19.7 12.6 7.2 6 8.5 14.9 1.5 9.9-4.9 17.6-6.3 7.8-16.5 12.4-10.2 4.6-20.1 6.1-8.4 1.2-18.4-0.6-10-1.9-17.5-7.1-7.6-5.2-8.9-13.9-0.9-6.4 2.4-12.6 3.2-6.1 9.4-7 2.7-0.4 6.1 1.1 3.4 1.6 8.7 4.8 7.2 4.5 12.6 6.7 5.3 2.1 11 1.3 4-0.6 6.6-3.6 2.6-3.1 2-6.8-0.8-5.7-6.6-10.2-5.9-4.6-17.4-11-13.8-7.9-21.3-14-7.4-6.1-8.7-14.8-1.3-8.9 3.8-15.7 5.1-6.8 13.6-10.8 8.5-4 16.9-5.2 13.9-2 26.9 1.5 13 3.5 14.8 15.9 1.1 7.7-2.5 13.4-3.6 5.7-11.2 6.8-3 0.4-9.1-0.2z"/>
			</g>
			<g id="&lt;Group&gt;">
				<path id="&lt;Compound Path&gt;" class="s1" d="m297.6 322q3.7 3.8 4.4 9 1.8 12.3-3.6 22.6-5.5 10.3-15.9 16.7-10.5 6.5-22.6 8.2-20 2.9-33.1-7.7-13-10.6-15.9-30.9-2.3-15.6 3.8-34.5 6.1-19 18.6-33.2 12.4-14.1 28.5-16.5 11.9-1.7 19.8 4.9 7.9 6.5 9.6 18.6 1.2 8-0.8 16.8-2 8.9-7.3 15.4-5.2 6.4-13.6 7.6-5.5 0.8-9.9-1.8-4.4-2.7-5.2-8.1-0.6-4 1.4-5.8 5.7-6.3 8.9-12.2 3.1-5.9 2.2-12.4-0.5-3.4-2.4-5.3-1.9-1.9-5.1-1.4-7.7 1.1-12.7 9.3-5 8.2-7 18.7-2 10.5-1 17.7 1.6 10.6 7.4 17.7 5.8 7.1 15.7 5.7 6.4-0.9 10.2-4.4 3.8-3.4 8.2-9.6 2.7-4 4.6-5.9 1.9-1.9 4.1-2.2 5-0.7 8.7 3z"/>
				<path id="&lt;Compound Path&gt;" fill-rule="evenodd" class="s1" d="m377.9 251.3q9.3 5.4 15.1 15.3 5.7 9.9 7.4 21.6 2.2 15.3-2.8 32.7-5.1 17.4-16.5 30.1-11.5 12.6-27.3 14.9-11.9 1.7-21.2-3.7-9.4-5.5-15.3-15.4-5.8-9.9-7.5-21.5-2.2-15.3 2.8-32.7 5.1-17.4 16.5-30.1 11.4-12.6 27.3-14.9 12.1-1.8 21.5 3.7zm-33.7 66.7q3.5 4.3 9.5 3.5 7.2-1.1 12.5-8 5.3-7 7.7-16.1 2.5-9 1.5-16-0.9-6.1-4.4-10.6-3.6-4.4-9.3-3.5-7.1 1-12.6 8-5.4 6.9-7.8 16.1-2.5 9.2-1.5 16.2 0.9 6.2 4.4 10.4z"/>
				<path id="&lt;Compound Path&gt;" class="s1" d="m531.8 223q3.7 4.2 4.7 10.8 1.8 12.4-3.2 32.3-7.9 32.2-4.9 53.3 0.3 1.7 1.3 5 0.9 3.2 1.2 4.7 0.7 5-2.3 7.8-3 2.8-8.2 3.6-7.9 1.1-14.1-3.8-6.1-4.9-7.3-12.8-0.8-5.7 0.3-12.1 1.1-6.3 3.3-15.2 0.1-1 1.3-5.6 1.1-4.6 0.8-6.6l-0.1-0.7-1.1-0.4q-2.2 0.4-4.7 4.4-2.4 4-6.8 12.4-7 14-12.7 21.8-5.7 7.9-12.6 8.9-5.7 0.9-9-2.7-3.3-3.6-4.2-9.5-0.8-6.2-0.9-13.2 0-7.1 0-8.9 0.4-13.2-0.9-22.1-0.8-5.7-2.3-5.5-5.2 0.8-6.6 15.4-1.5 14.6-0.6 31.8 0.8 17.2 1.8 24.1 0.9 5.9-2.1 9.6-3 3.8-8.9 4.6-11.4 1.7-17.9-6.4-6.4-8-8.2-20.4-2.5-17.3 3-40.2 5.5-22.9 17-43 11.5-20.1 26-29.3 5.6-3.6 11-4.3 7-1 11.2 2.8 4.2 3.8 5.2 10.9 1 6.5 0 13.9-0.9 7.5-3 17.4-2 10.4-2.8 15.7-0.7 5.3 0 10.2 0.5 4 3.5 3.6 3.5-0.5 6.9-6.7 3.4-6.2 8.2-18.5 7.4-18.5 13.6-28.8 6.2-10.2 14.9-11.5 6.4-0.9 10.2 3.2z"/>
				<path id="&lt;Compound Path&gt;" fill-rule="evenodd" class="s1" d="m629.7 271.5q3.7 3.8 4.5 9 1.8 12.4-3.7 22.7-5.4 10.2-15.9 16.7-10.4 6.4-22.5 8.2-20.1 2.9-33.1-7.7-13-10.6-16-30.9-2.2-15.6 3.9-34.7 6-19.1 18.5-33.1 12.5-14.1 28.6-16.4 11.9-1.7 19.7 4.7 7.9 6.4 9.7 18.6 1.4 9.9-1.3 19.1-2.7 9.2-9.5 15.6-6.8 6.5-16.6 7.9-7.5 1.1-14.6-1.2-7.2-2.2-11-8l0.4 4.7q1.6 10.9 7.3 18.1 5.7 7.1 15.8 5.6 6.5-0.9 10.3-4.4 3.8-3.4 8.2-9.6 2.7-3.9 4.6-5.9 1.8-1.9 4-2.2 5-0.7 8.7 3.2zm-57.6-18.3q10.7-1.6 18.5-9 7.9-7.5 6.5-17.6-0.9-6-5.8-5.3-8 1.2-13.6 11.7-5.7 10.6-6.8 20.3z"/>
				<path id="&lt;Compound Path&gt;" fill-rule="evenodd" class="s1" d="m746.5 116.1q5.4 5.9 6.6 14.3 1.1 7.7 0.9 15.8-0.2 8.1-1.3 19.4-1.3 12.1-4.5 33.5-4.2 27.1-5.8 45.5-1.6 18.5 0.6 34.1 1.4 9.1 6.1 21l0.2 1q0.5 3.7-4.5 6.5-5.1 2.7-9.5 3.4-10.4 1.5-16.7-4.3-6.2-5.8-7.8-16.4-4.5 9.2-13 15.9-8.5 6.7-18.4 8.1-10.4 1.5-18.6-2.9-8.2-4.3-13.3-12.6-5.1-8.2-6.6-18.3-2.3-16.4 3.3-33.1 5.7-16.7 18.1-28.6 12.4-11.9 28.8-14.3 14.5-2.1 24.7 5.5 0.4-3.1 1-6.6 0.6-3.5 1-7.6 3.3-21.2 4.6-36.5 1.3-15.4 0.1-30.8-0.5-6.5 2-11.2 2.5-4.6 8.4-5.5 8.2-1.2 13.6 4.7zm-63.5 153.6q3.8 4.5 9.5 3.7 5.4-0.8 10-7.6 4.6-6.7 6.9-15.4 2.3-8.6 1.5-13.8-0.7-5-4.1-7.6-3.4-2.7-8.6-1.9-6.5 0.9-11.3 6.1-4.8 5.3-7.1 12.6-2.4 7.3-1.5 13.4 0.9 6 4.7 10.5z"/>
				<path id="&lt;Compound Path&gt;" class="s1" d="m866.5 177q3.9 1.3 4.5 5.3 0.2 1-0.5 3.6-10.1 28-13.6 86.9-1.1 22.3-3.9 37.3-2.7 14.9-10.6 28.3-7.9 13.4-23.2 24.9-12.8 9.5-31.1 12.1-12.8 1.9-25.4-1-12.5-2.8-21.5-10.9-9-8-10.9-21.1-1.4-9.9 3-18.8 4.4-8.8 14-10.2 6.2-0.9 11.8 1.4 5.7 2.4 14 7.5 9.7 5.9 16.7 8.6 6.9 2.6 15.3 1.4 5.7-0.8 10.9-3.6 11-5.6 16.3-26.4 5.4-20.7 6-39.2-7.7 15.2-18.2 27-10.6 11.7-23.4 13.6-15.6 2.3-23.8-9.7-8.2-11.9-10.7-29.2-1.9-13.2-0.2-31.3 1.7-18.2 8.7-32.5 7-14.3 20.4-16.2 5.4-0.8 8.7 2.7 3.3 3.4 4.1 9.1 1 7.2-0.2 14.3-1.3 7.1-4.2 17.9-3 11-4.3 17.9-1.2 6.9-0.2 13.8 0.6 4.5 3 7.8 2.4 3.3 6.6 2.7 7.1-1 11-10.3 3.8-9.3 8.2-28.1 3.6-16.7 7.2-27.4 3.6-10.8 10.1-19.1 6.5-8.2 16.9-9.7 4.5-0.7 8.5 0.6z"/>
			</g>
			<g id="&lt;Group&gt;">
				<path id="&lt;Compound Path&gt;" fill-rule="evenodd" class="s1" d="m145.4 360.2q2 1 2.5 4.5 0.9 6.4-5.2 11.6-6.1 5.2-12.7 6.1-9.2 1.4-21.2-3.4-7.2 11.6-18.8 19.7-11.6 8.1-24.9 10.1-10.2 1.4-19.9-1.1-9.7-2.5-16.6-9.2-6.9-6.7-8.4-17.1-1.9-13.3 6.3-26.4 8.2-13 20.8-23.5-10-13.4-12.5-30.2-2.5-17.6 3.9-34.4 6.4-16.9 20-28.3 13.6-11.5 31.5-14.1 13.8-2 24.9 3.9 11.1 5.8 13 19.2 1.9 13.1-5.1 28.1-7.1 15.1-18.7 27.9-11.7 12.8-23.5 20.3 1.7 4.8 9.4 12.3 7.6 7.5 13.2 11.2 1-5.2-0.2-13.4l-1.5-8.8q-1-7.2 0.4-12 1.5-4.7 7.4-5.6 7.2-1 11 5.1 3.8 6.2 5 14.3 1 7.4 0.4 15.4-0.6 7.9-3.2 14.6 9.4 3.9 17.4 2.8 3.4-0.5 5.3 0.4zm-82.6 11.9q5.7 2.8 11.9 1.9 4.4-0.6 9.9-3.2-13.1-6.7-24.6-19.6-4.6 6.2-3.8 12.1 0.9 6 6.6 8.8zm8.3-66.5q8.6-6.8 15.6-17.4 7.1-10.6 5.8-19.3-0.6-4.5-3.4-7.2-2.8-2.8-6.8-2.2-9.4 1.4-12.9 12-3.5 10.6-1.9 21.2 1 7.2 3.6 12.9z"/>
			</g>
		</g>
		<g id="&lt;Group&gt;">
			<path id="&lt;Compound Path&gt;" class="s0" d="m384.5 400.8q2.6 1.3 4.2 3.9 1.6 2.5 2 5.4 0.3 2-0.3 4.4-0.5 2.3-2 4.1-1.4 1.7-3.5 2-1.9 0.3-3.2-0.5-1.2-0.7-1.5-2.6-0.1-0.6-0.1-1.6 0-1 0-1.5-0.2-1.2-0.9-2.6-0.7-1.3-1.7-1.2-4.2 0.6-5.2 7-1 6.3-0.8 13.1 1.7-1.2 4.9-1.7 2.9-0.4 5.6 0.2 2.7 0.5 3 3 0.2 1.3-0.6 2.3-0.8 1-2.1 1.2-0.8 0.1-1.9-0.1-1.2-0.2-1.5-0.2-0.3-0.1-2.1-0.3-1.7-0.3-3.4-0.1-1.1 0.2-1.7 0.4l0.2 2.8q0.5 6.3 0.5 11.1 0 4.8-1.1 7.8-1.5 4.1-5.1 7.1-3.6 3.1-7.9 3.8-3.6 0.5-6.3-0.7-2.8-1.1-3.3-4.4-0.2-1.6 0.4-3 0.5-1.4 2-1.6 3.6-0.6 5.4-1.2 1.7-0.5 3.5-2.5 3-3.1 3.7-7.9 0.7-4.8 0.6-13-0.1-6.8 0.2-11.2 0.3-4.5 1.7-9.2 1.5-4.6 4.7-8.4 1.6-2 3.7-3.3 2.1-1.4 4.4-1.7 3-0.4 5.5 0.9z"/>
			<path id="&lt;Compound Path&gt;" class="s0" d="m390.1 437.2q-0.6-4 0.3-10 0.6-3.3 1.9-8.5 1.4-5.2 3.6-9.6 2.2-4.4 4.7-4.7 2.5-0.4 3.1 3.5 0.4 2.7 0.1 5.6-0.3 2.8-1.1 7.5-0.8 4.3-1.1 7-0.2 2.8 0.2 5.4 0.1 1 0.9 2.7 0.7 1.9 0.9 2.9 0.3 2-1.5 3.3-1.8 1.3-4.1 1.6-3.5 0.5-5.5-1.2-2-1.8-2.5-5.5zm15.9-47.2q1.6 1.2 1.9 3.2 0.3 2.1-0.9 3.8-1.2 1.7-3.2 2-2 0.3-3.6-1-1.7-1.3-2-3.4-0.3-2 0.9-3.6 1.2-1.7 3.3-2 2-0.3 3.6 1z"/>
			<path id="&lt;Compound Path&gt;" class="s0" d="m423.9 377.1q1.8 1.2 2.1 3.5 0.5 3.4-0.6 7.5-1.1 4.1-3.7 10.8-3.2 8.4-4.8 14.5-1.5 6.1-0.7 12.2 0.5 2.8 1.4 5.1 0.9 2.2 2.8 6.2 0.1 0.1 0.2 0.4 0.2 0.3 0.2 0.6 0.2 1-1.8 2-2 1-3.4 1.2-3.9 0.6-6.1-1.9-2.2-2.5-2.8-6.5l-0.2-1.3q-0.4-5.5 0.6-11.7 1-6.2 3.2-15.1 1.8-7.5 2.8-12.7 1-5.2 1.2-10.1 0.1-2.2 1.7-3.7 1.6-1.6 3.8-1.9 2.4-0.3 4.1 0.9z"/>
			<path id="&lt;Compound Path&gt;" class="s0" d="m463.3 396.2q1.2 1.4 1.5 3.6 0.6 4-1 10.5-2.6 10.6-1.6 17.5 0.1 0.5 0.4 1.6 0.3 1.1 0.4 1.6 0.2 1.6-0.8 2.5-0.9 0.9-2.6 1.2-2.6 0.4-4.6-1.3-2.1-1.6-2.4-4.2-0.3-1.8 0.1-3.9 0.3-2.1 1.1-5 0-0.3 0.4-1.8 0.3-1.5 0.2-2.2v-0.2l-0.4-0.1q-0.7 0.1-1.5 1.4-0.8 1.3-2.2 4.1-2.3 4.5-4.2 7.1-1.8 2.6-4.1 2.9-1.9 0.3-2.9-0.9-1.1-1.1-1.4-3.1-0.3-2-0.3-4.3 0-2.3 0-2.9 0.1-4.3-0.3-7.2-0.3-1.9-0.8-1.8-1.7 0.2-2.1 5-0.5 4.8-0.2 10.4 0.3 5.6 0.6 7.9 0.3 1.9-0.7 3.1-1 1.3-2.9 1.5-3.8 0.6-5.9-2.1-2.1-2.6-2.7-6.6-0.8-5.7 1-13.2 1.8-7.5 5.6-14.1 3.7-6.5 8.5-9.6 1.8-1.1 3.6-1.4 2.3-0.3 3.6 0.9 1.4 1.3 1.8 3.6 0.3 2.1 0 4.6-0.4 2.4-1 5.7-0.7 3.4-1 5.1-0.2 1.7 0 3.3 0.2 1.3 1.2 1.2 1.1-0.2 2.2-2.2 1.2-2 2.7-6 2.4-6.1 4.5-9.4 2-3.4 4.9-3.8 2.1-0.3 3.3 1z"/>
			<path id="&lt;Compound Path&gt;" class="s0" d="m517.7 381.5q2.5 1.3 4.1 3.8 1.7 2.6 2.1 5.5 0.3 2-0.3 4.4-0.6 2.3-2 4.1-1.4 1.7-3.5 2-1.9 0.3-3.2-0.5-1.3-0.7-1.5-2.6-0.1-0.6-0.1-1.6 0-1.1 0-1.5-0.2-1.3-0.9-2.6-0.7-1.3-1.7-1.2-4.2 0.6-5.2 7-1 6.3-0.8 13.1 1.7-1.2 4.9-1.7 2.9-0.4 5.6 0.2 2.7 0.5 3 3 0.2 1.3-0.6 2.3-0.9 1-2.2 1.2-0.7 0.1-1.8-0.1-1.2-0.2-1.5-0.2-0.4-0.1-2.1-0.4-1.7-0.2-3.4 0-1.2 0.2-1.7 0.4l0.2 2.8q0.5 6.3 0.4 11.1 0 4.8-1 7.8-1.5 4-5.1 7.1-3.6 3.1-7.9 3.7-3.6 0.6-6.4-0.6-2.7-1.1-3.2-4.4-0.2-1.6 0.3-3 0.6-1.4 2-1.7 3.7-0.5 5.5-1.1 1.7-0.6 3.5-2.5 3-3.1 3.7-7.9 0.7-4.9 0.6-13-0.1-6.8 0.2-11.3 0.3-4.4 1.7-9.1 1.4-4.7 4.7-8.4 1.6-2 3.7-3.3 2.1-1.4 4.4-1.7 3-0.5 5.5 0.9z"/>
			<path id="&lt;Compound Path&gt;" fill-rule="evenodd" class="s0" d="m552.3 403.8q1.3 1.3 1.5 3 0.6 4-1.2 7.4-1.8 3.4-5.2 5.5-3.4 2.1-7.4 2.6-6.5 1-10.8-2.5-4.3-3.4-5.2-10.1-0.8-5.1 1.2-11.3 2-6.3 6.1-10.9 4.1-4.6 9.3-5.3 3.9-0.6 6.5 1.5 2.6 2.1 3.2 6.1 0.4 3.2-0.5 6.2-0.8 3.1-3.1 5.2-2.2 2.1-5.4 2.5-2.4 0.4-4.8-0.4-2.3-0.7-3.6-2.6l0.2 1.6q0.5 3.5 2.3 5.9 1.9 2.3 5.2 1.8 2.1-0.3 3.4-1.4 1.2-1.1 2.7-3.2 0.9-1.3 1.5-1.9 0.6-0.6 1.3-0.7 1.6-0.2 2.8 1zm-18.8-6q3.5-0.5 6.1-2.9 2.5-2.5 2.1-5.8-0.3-1.9-1.9-1.7-2.6 0.4-4.5 3.8-1.8 3.5-2.2 6.7z"/>
			<path id="&lt;Compound Path&gt;" class="s0" d="m574.7 392.4q-2.2-0.1-3.1 0-2.5 0.3-2.3 1.7 0.2 1.1 1.4 2 1.3 0.9 4.1 2.4 4.1 2.1 6.4 4.1 2.4 1.9 2.8 4.9 0.5 3.2-1.6 5.7-2.1 2.6-5.4 4.1-3.4 1.5-6.6 2-2.7 0.4-6-0.2-3.3-0.6-5.8-2.3-2.4-1.8-2.9-4.6-0.3-2.1 0.8-4.1 1.1-2 3.1-2.3 0.9-0.1 2 0.4 1.1 0.5 2.8 1.5 2.4 1.5 4.2 2.2 1.7 0.7 3.6 0.4 1.3-0.2 2.1-1.2 0.9-0.9 0.7-2.2-0.3-1.8-2.2-3.3-1.9-1.5-5.7-3.6-4.5-2.6-6.9-4.6-2.5-2-2.9-4.8-0.4-2.9 1.3-5.2 1.6-2.2 4.4-3.5 2.8-1.3 5.5-1.7 4.6-0.7 8.8 0.5 4.3 1.1 4.9 5.2 0.4 2.5-0.8 4.4-1.2 1.8-3.7 2.2-1 0.1-3-0.1z"/>
			<path id="&lt;Compound Path&gt;" class="s0" d="m613.1 372.9q1 0.7 1.3 2.3 0.4 2.7-2.4 4.4-2.7 1.7-5.7 2.1-4.5 0.7-7.7-1.1-1.3 8.2-0.4 14.5 1.3 8.4 7 7.5 1.1-0.1 1.6 0.3 0.5 0.4 0.7 1.7 0.3 2.5-0.7 4.8-1.1 2.4-3.2 4-2.1 1.6-4.6 2-4.8 0.7-7.8-2.3-3-2.9-3.7-7.8-1.3-8.6 1.6-25 0.4-2.5 3-12.3 2.6-9.8 3.3-11.1 1-1.6 2.2-2.7 1.3-1.2 2.8-1.4 1.1-0.1 2.1 0.2 1 0.4 1.2 1.4-0.5 3.1-1.8 9.8-1.2 6.7-2 10.6 1 0.1 2 0 1.1-0.2 4.2-1.2 2.5-1 4.2-1.2 1.7-0.3 2.8 0.5z"/>
			<path id="&lt;Compound Path&gt;" class="s0" d="m611.6 405.1q-0.6-4 0.4-10 0.5-3.3 1.9-8.5 1.4-5.2 3.5-9.6 2.2-4.4 4.7-4.7 2.5-0.4 3.1 3.5 0.4 2.7 0.1 5.6-0.3 2.8-1.1 7.5-0.8 4.2-1 7-0.3 2.8 0.1 5.4 0.1 1 0.9 2.7 0.7 1.9 0.9 2.9 0.3 2-1.5 3.3-1.8 1.3-4.1 1.6-3.5 0.5-5.5-1.3-2-1.7-2.5-5.4zm15.9-47.3q1.7 1.3 2 3.3 0.2 2-1 3.7-1.2 1.7-3.2 2-2 0.3-3.6-1-1.7-1.2-2-3.3-0.3-2 0.9-3.7 1.3-1.6 3.3-1.9 2-0.3 3.6 0.9z"/>
			<path id="&lt;Compound Path&gt;" class="s0" d="m654.6 369.1q1.9 2.2 2.4 5.4 0.8 5.6-1.1 12-1.9 6.3-5.7 11.8-3.8 5.4-8.6 8.6-3.1 2.2-6.2 2.6-2.2 0.3-3.6-0.8-1.4-1.1-1.7-3.3-0.4-2.3 0.8-6.4 2-7.4 1.2-13-0.3-2.4-1-4-0.3-0.9-1.6-3-0.2-0.3-0.7-1.3-0.6-1-0.7-1.5-0.2-1.4 1.5-2.5 1.7-1.1 3.3-1.4 3.5-0.5 5.7 2 2.2 2.5 2.7 6.2 0.5 3.5 0 6.9-0.5 3.3-1.9 7.9-0.9 2.8-1.4 5.5l0.3-0.1q1.9-0.2 4-2.7 2.5-2.8 3.5-6.7 1-3.9 0.4-7.7-0.2-1.5-1.1-4.3-0.1-0.6-0.5-1.9-0.4-1.3-0.5-2.4-0.4-2.7 1.3-5 1.6-2.3 4.4-2.7 3-0.4 4.8 1.8z"/>
			<path id="&lt;Compound Path&gt;" fill-rule="evenodd" class="s0" d="m690.8 370q-0.4 1.9-1.2 4.8-1.1 4.1-1.6 7-0.5 3-0.1 5.8 0.2 1.6 0.8 2.9 0.5 1.2 1.3 2.8 1.1 1.9 1.3 3.1 0.2 2-0.7 3.6-1 1.6-2.9 1.9-4.4 0.7-6.9-6.3-1.1 2.9-4.3 4.9-3.2 2-6.5 2.5-3.1 0.5-5.7-1.1-2.6-1.6-4.2-4.3-1.6-2.8-2.1-5.8-0.7-5.3 1.1-10.8 1.9-5.5 5.9-9.3 4.1-3.9 9.4-4.7 4.7-0.7 8.1 1.8 0.3-1.9 1.3-3.5 1-1.5 2.8-1.7 1.6-0.3 2.8 0.7 1.3 0.9 1.5 2.5 0.2 1.4-0.1 3.2zm-19 18.4q1.2 1.5 3.1 1.2 1.8-0.2 3.3-2.4 1.5-2.2 2.2-5 0.8-2.9 0.5-4.6-0.2-1.6-1.3-2.5-1.1-0.8-2.8-0.6-2.2 0.3-3.7 2-1.6 1.7-2.4 4.1-0.7 2.4-0.4 4.4 0.2 2 1.5 3.4z"/>
			<path id="&lt;Compound Path&gt;" class="s0" d="m711 335.4q1.8 1.2 2.1 3.6 0.5 3.4-0.6 7.5-1.1 4-3.7 10.8-3.2 8.4-4.8 14.5-1.5 6.1-0.7 12.2 0.4 2.8 1.4 5.1 0.9 2.2 2.8 6.1 0.1 0.2 0.2 0.5 0.2 0.3 0.2 0.6 0.2 0.9-1.8 2-2 1-3.4 1.2-3.9 0.6-6.1-1.9-2.2-2.5-2.8-6.6l-0.2-1.3q-0.4-5.4 0.6-11.6 1-6.2 3.2-15.1 1.8-7.5 2.8-12.7 1-5.2 1.2-10.1 0.1-2.2 1.7-3.7 1.6-1.6 3.8-1.9 2.4-0.4 4.1 0.8z"/>
		</g>
	</g>
</svg>