<?xml version="1.0" encoding="UTF-8" standalone="no"?>
<!-- Created with Inkscape (http://www.inkscape.org/) -->

<svg
   version="1.1"
   id="svg2"
   width="1360.4532"
   height="983.91998"
   viewBox="0 0 1360.4532 983.91998"
   sodipodi:docname="FullLogo_Cookies&amp;ComedyFilmFestival.eps"
   xmlns:inkscape="http://www.inkscape.org/namespaces/inkscape"
   xmlns:sodipodi="http://sodipodi.sourceforge.net/DTD/sodipodi-0.dtd"
   xmlns="http://www.w3.org/2000/svg"
   xmlns:svg="http://www.w3.org/2000/svg">
  <defs
     id="defs6" />
  <sodipodi:namedview
     id="namedview4"
     pagecolor="#ffffff"
     bordercolor="#000000"
     borderopacity="0.25"
     inkscape:showpageshadow="2"
     inkscape:pageopacity="0.0"
     inkscape:pagecheckerboard="0"
     inkscape:deskcolor="#d1d1d1" />
  <g
     id="g8"
     inkscape:groupmode="layer"
     inkscape:label="ink_ext_XXXXXX"
     transform="matrix(1.3333333,0,0,-1.3333333,0,983.92)">
    <g
       id="g10"
       transform="scale(0.1)">
      <path
         d="M 7732.23,6622.54 C 6527.25,7434.07 5153.76,7497.58 4338.55,7255.27 3092.71,6884.97 1719.8,4962.66 1861.39,3446.03 1963.1,2356.53 3426.42,100.34 4964.42,8.05078 6976.32,-112.688 8971.63,1120.61 9291.05,4051.3 c 20.97,192.34 11.08,370.29 -142.65,592.78 -139.81,-159.63 -502.46,-154.07 -590.09,162.19 -217.21,-283.2 -874.38,-44.43 -1089.36,623.36 -333.63,1036.38 263.28,1192.91 263.28,1192.91"
         style="fill:#c69c6d;fill-opacity:1;fill-rule:nonzero;stroke:none"
         id="path12" />
      <path
         d="m 2839.64,2520.38 c 24.67,-25.07 39.53,-54.89 44.55,-89.53 11.96,-82.48 -0.27,-157.9 -36.65,-226.33 -36.41,-68.43 -89.36,-124.09 -158.91,-167.01 -69.56,-42.93 -144.76,-70.25 -225.55,-81.95 -133.59,-19.38 -243.84,6.31 -330.7,77.07 -86.91,70.76 -140.12,173.75 -159.73,309 -15.07,103.91 -2.32,218.98 38.33,345.29 40.62,126.27 102.48,236.71 185.62,331.29 83.1,94.53 178.25,149.61 285.48,165.16 79.16,11.48 145.04,-4.66 197.71,-48.36 52.65,-43.76 84.84,-106.03 96.55,-186.82 7.66,-52.8 4.81,-108.79 -8.48,-167.95 -13.32,-59.19 -37.49,-110.25 -72.51,-153.22 -35.05,-42.97 -80.6,-68.52 -136.65,-76.65 -36.3,-5.26 -69.2,0.91 -98.67,18.54 -29.51,17.57 -46.88,44.55 -52.14,80.85 -3.82,26.36 0.97,45.6 14.38,57.64 37.61,42.48 67.04,83.38 88.3,122.69 21.22,39.26 28.76,80.35 22.54,123.25 -3.34,23.08 -11.41,40.85 -24.15,53.33 -12.77,12.43 -29.87,17.14 -51.29,14.03 -51.14,-7.42 -93.38,-38.4 -126.72,-92.89 -33.38,-54.52 -56.75,-116.83 -70.13,-186.98 -13.44,-70.15 -16.65,-129.14 -9.72,-176.96 10.29,-70.93 34.85,-130.08 73.73,-177.48 38.85,-47.44 91.28,-66.34 157.26,-56.77 42.87,6.21 76.94,20.82 102.26,43.87 25.27,22.99 52.62,55.19 81.99,96.51 18.07,26.17 33.36,45.63 45.84,58.43 12.44,12.72 26.12,20.2 40.95,22.35 32.98,4.79 61.8,-5.36 86.51,-30.4"
         style="fill:#ffffff;fill-opacity:1;fill-rule:nonzero;stroke:none"
         id="path14" />
      <path
         d="m 3306.19,2560.24 c 23.49,-28.6 55.06,-40.01 94.64,-34.27 47.82,6.93 89.42,33.57 124.8,79.99 35.36,46.36 61.31,99.82 77.8,160.3 16.49,60.49 21.39,113.81 14.69,160 -5.97,41.2 -20.81,76.55 -44.41,105.97 -23.64,29.41 -54.43,41.35 -92.35,35.86 -47.85,-6.94 -89.84,-33.67 -126.04,-80.15 -36.19,-46.54 -62.47,-100.44 -78.85,-161.74 -16.36,-61.33 -21.2,-115.08 -14.51,-161.23 5.98,-41.25 20.72,-76.17 44.23,-104.73 z m 336.4,667.63 c 62.51,-36.41 112.88,-87.64 151.09,-153.64 38.2,-66.07 62.93,-137.82 74.17,-215.32 14.83,-102.29 5.39,-211.4 -28.31,-327.42 -33.69,-116.03 -88.63,-216.2 -164.82,-300.49 -76.18,-84.29 -167.07,-134.11 -272.6,-149.41 -79.17,-11.47 -150.04,0.98 -212.55,37.38 -62.54,36.41 -113.33,87.54 -152.33,153.48 -39.04,65.89 -64.15,137.6 -75.4,215.14 -14.82,102.23 -5.39,211.38 28.3,327.41 33.7,116.02 88.64,216.18 164.83,300.49 76.18,84.3 167.03,134.1 272.6,149.4 80.79,11.72 152.48,-0.62 215.02,-37.02"
         style="fill:#ffffff;fill-opacity:1;fill-rule:nonzero;stroke:none"
         id="path16" />
      <path
         d="m 5181.56,3510.36 c 25.03,-27.55 40.79,-63.55 47.25,-108.08 11.96,-82.5 1.43,-190.1 -31.5,-322.82 -53.07,-214.83 -69.41,-392.35 -49.09,-532.52 1.68,-11.56 5.75,-28.22 12.3,-50 6.52,-21.78 10.51,-37.62 11.95,-47.52 4.79,-33.01 -2.83,-58.93 -22.82,-77.82 -19.99,-18.92 -47.31,-30.86 -81.95,-35.88 -52.8,-7.65 -99.65,4.89 -140.6,37.71 -40.98,32.77 -65.25,75.55 -72.91,128.35 -5.5,37.93 -4.61,78.04 2.75,120.39 7.33,42.3 18.46,93.17 33.44,152.61 0.67,6.81 4.71,25.51 12.08,56.06 7.34,30.51 10.09,52.37 8.17,65.59 l -1.07,7.43 -10.61,3.51 c -14.85,-2.15 -30.43,-16.64 -46.76,-43.41 -16.32,-26.79 -38.94,-68.39 -67.8,-124.75 -47.17,-92.73 -89.67,-165.43 -127.51,-218.04 -37.84,-52.66 -79.86,-82.31 -126.02,-89 -37.96,-5.51 -67.89,3.61 -89.85,27.39 -21.99,23.73 -35.82,55.43 -41.56,95.01 -5.98,41.21 -9.03,85.4 -9.12,132.55 -0.12,47.11 -0.17,76.58 -0.18,88.38 2.41,87.89 -0.69,161.56 -9.3,220.93 -5.5,37.92 -13.2,56.2 -23.1,54.76 -34.63,-5.03 -56.7,-56.22 -66.14,-153.57 -9.49,-97.37 -11.37,-203.33 -5.7,-317.84 5.64,-114.54 11.84,-194.91 18.54,-241.06 5.74,-39.59 -1.39,-71.79 -21.36,-96.55 -20.01,-24.81 -49.76,-40.06 -89.35,-45.8 -75.88,-11 -135.36,10.26 -178.49,63.79 -43.12,53.51 -70.66,121.5 -82.62,203.99 -16.73,115.42 -6.73,249.48 30.09,402.2 36.79,152.67 93.48,296.01 170.04,430.06 76.55,134 163.43,231.65 260.63,292.92 36.96,23.85 73.56,38.44 109.86,43.71 46.15,6.69 83.31,-2.69 111.42,-28.06 28.07,-25.41 45.61,-62.01 52.55,-109.83 6.22,-42.9 6.18,-89.2 -0.06,-138.94 -6.29,-49.77 -16.41,-107.65 -30.4,-173.64 -13.55,-69.34 -22.78,-121.63 -27.78,-156.85 -4.99,-35.25 -5.09,-69.36 -0.31,-102.34 3.82,-26.41 15.64,-38.15 35.42,-35.28 23.08,3.34 45.94,25.6 68.62,66.78 22.65,41.17 49.91,102.79 81.81,184.88 49.44,123.36 94.91,219.2 136.39,287.52 41.44,68.31 91.02,106.66 148.77,115.03 42.87,6.21 76.82,-4.44 101.88,-31.95"
         style="fill:#ffffff;fill-opacity:1;fill-rule:nonzero;stroke:none"
         id="path18" />
      <path
         d="m 5585.2,3208.94 c 70.88,10.29 132.64,40.28 185.23,90 52.55,49.7 73.95,108.36 64.15,176.02 -5.74,39.57 -25.12,56.97 -58.09,52.2 -52.8,-7.66 -98.05,-46.66 -135.86,-116.96 -37.79,-70.31 -60.42,-138 -67.81,-203.05 z m 575.92,-182.98 c 24.79,-25.88 39.7,-56.13 44.73,-90.77 11.95,-82.48 -0.27,-157.9 -36.65,-226.32 -36.42,-68.43 -89.36,-124.1 -158.91,-167.03 -69.56,-42.91 -144.76,-70.23 -225.55,-81.95 -133.6,-19.36 -243.84,6.32 -330.71,77.09 -86.9,70.74 -140.12,173.74 -159.73,309 -15.07,103.9 -2.37,219.41 38.16,346.53 40.5,127.12 102.36,237.51 185.62,331.29 83.22,93.72 178.42,148.37 285.65,163.91 79.17,11.49 144.99,-4.22 197.55,-47.12 52.51,-42.92 84.65,-104.8 96.37,-185.59 9.57,-65.99 5.31,-129.75 -12.68,-191.28 -18.03,-61.57 -49.62,-113.71 -94.77,-156.46 -45.19,-42.77 -100.76,-68.91 -166.7,-78.47 -49.49,-7.17 -98.04,-3.27 -145.68,11.72 -47.63,14.96 -84.34,41.64 -110.12,80.02 l 4.35,-47.38 c 10.52,-72.57 34.78,-132.6 72.84,-180.13 38.04,-47.53 90.85,-66.4 158.51,-56.59 42.86,6.22 76.93,20.83 102.25,43.87 25.28,23.01 52.62,55.19 81.99,96.52 18.07,26.18 33.37,45.64 45.84,58.41 12.44,12.75 26.12,20.22 40.95,22.37 32.98,4.78 61.86,-5.8 86.69,-31.64"
         style="fill:#ffffff;fill-opacity:1;fill-rule:nonzero;stroke:none"
         id="path20" />
      <path
         d="m 6694,3043.87 c 25.39,-30.03 57.04,-42.25 95,-36.75 36.26,5.26 69.68,30.31 100.25,75.16 30.52,44.84 53.39,96.15 68.61,153.92 15.19,57.77 20.28,103.97 15.26,138.61 -4.78,32.98 -18.55,58.33 -41.33,76.1 -22.79,17.73 -51.5,24.11 -86.14,19.09 -42.9,-6.22 -80.33,-26.81 -112.28,-61.75 -31.99,-34.95 -55.81,-76.73 -71.51,-125.29 -15.68,-48.61 -20.53,-93.53 -14.57,-134.73 5.75,-39.59 21.29,-74.39 46.71,-104.36 z m 634.91,1535.62 c 36.02,-39.42 58.1,-87.17 66.23,-143.23 7.41,-51.13 10.38,-103.75 8.99,-157.82 -1.43,-54.13 -5.96,-118.75 -13.56,-193.94 -8.56,-80.41 -23.55,-192.03 -44.91,-334.88 -27.69,-180.82 -46.92,-332.65 -57.73,-455.46 -10.85,-122.81 -8.69,-236.17 6.37,-340.08 8.85,-61.03 29.15,-131.34 60.89,-210.93 l 1.43,-9.89 c 3.58,-24.73 -11.4,-46.28 -44.93,-64.61 -33.58,-18.33 -65.17,-29.66 -94.85,-33.95 -69.27,-10.05 -124.82,4.2 -166.6,42.77 -41.82,38.54 -67.84,93.3 -78.12,164.23 -29.83,-61.59 -73.06,-114.59 -129.77,-159.01 -56.7,-44.44 -118.06,-71.41 -184.01,-80.97 -69.27,-10.05 -131.28,-0.54 -186.02,28.59 -54.73,29.08 -99.14,71.07 -133.19,125.93 -34.06,54.81 -55.98,116.05 -65.78,183.69 -15.78,108.85 -4.84,219.05 32.9,330.62 37.7,111.55 97.94,207 180.76,286.37 82.78,79.33 178.6,126.94 287.46,142.72 97.3,14.11 179.95,-4.22 247.94,-54.97 2.07,20.5 5.22,42.42 9.41,65.76 4.19,23.34 7.66,48.67 10.44,76.03 21.61,141.19 36.78,262.98 45.55,365.29 8.73,102.31 8.99,205.04 0.76,308.27 -2.93,43.34 3.88,80.53 20.45,111.59 16.55,31 44.62,49.4 84.21,55.14 54.43,7.89 99.65,-7.9 135.68,-47.26"
         style="fill:#ffffff;fill-opacity:1;fill-rule:nonzero;stroke:none"
         id="path22" />
      <path
         d="m 8528.59,3970.39 c 26.54,-8.78 41.72,-26.39 45.54,-52.76 0.97,-6.61 -0.68,-18.64 -4.86,-36.06 -67.29,-186.57 -112.85,-476.08 -136.77,-868.55 -7.02,-149.2 -19.71,-273.52 -38.12,-373.03 -18.4,-99.5 -53.97,-193.89 -106.69,-283.23 -52.73,-89.3 -129.95,-172.48 -231.57,-249.53 -85.21,-62.89 -188.82,-103.16 -310.85,-120.85 -85.78,-12.45 -170.44,-9.13 -254.03,9.89 -83.58,19.06 -155.35,55.38 -215.34,108.96 -59.95,53.63 -96.3,124.14 -108.98,211.54 -9.56,65.97 0.33,128.47 29.66,187.43 29.34,59 76.16,93.13 140.49,102.46 41.24,5.98 80.65,1.2 118.28,-14.42 37.63,-15.58 84.17,-40.41 139.62,-74.48 64.65,-39.45 120.15,-68.03 166.51,-85.73 46.34,-17.68 97.55,-22.49 153.64,-14.36 37.93,5.5 74.07,17.5 108.45,35.94 73.69,37.65 128.3,125.56 163.85,263.71 35.54,138.16 55.28,269.01 59.28,392.53 -50.93,-101.71 -111.57,-191.72 -181.86,-270.11 -70.33,-78.39 -148.37,-123.81 -234.1,-136.25 -103.9,-15.06 -183.1,17.22 -237.6,96.91 -54.48,79.63 -90.1,177.2 -106.84,292.66 -12.68,87.41 -13.5,191.68 -2.42,312.88 11.05,121.14 40,229.34 86.81,324.53 46.83,95.19 114.77,149.26 203.83,162.17 36.25,5.25 65.32,-3.59 87.2,-26.52 21.83,-22.96 35.53,-53.39 41.02,-91.3 6.94,-47.86 6.27,-95.5 -2,-142.99 -8.26,-47.55 -22.34,-107.24 -42.22,-179.16 -19.65,-73.58 -33.72,-133.31 -42.23,-179.16 -8.51,-45.85 -9.41,-91.89 -2.72,-138.04 4.31,-29.68 14.38,-55.62 30.22,-77.72 15.84,-22.14 37.74,-31.16 65.81,-27.09 47.81,6.94 84.51,41.31 110.09,103.12 25.52,61.8 52.8,155.42 81.78,280.87 24.28,111.26 48.46,202.78 72.6,274.48 24.1,71.69 57.85,135.08 101.24,190.23 43.35,55.11 99.69,87.71 168.96,97.75 29.68,4.31 57.79,2.07 84.32,-6.72"
         style="fill:#ffffff;fill-opacity:1;fill-rule:nonzero;stroke:none"
         id="path24" />
      <path
         d="m 1697.53,3785.81 c 24.68,-25.07 39.54,-54.89 44.55,-89.53 11.97,-82.48 -0.26,-157.89 -36.64,-226.33 -36.42,-68.42 -89.36,-124.09 -158.91,-167.01 -69.56,-42.91 -144.76,-70.25 -225.55,-81.95 -133.59,-19.38 -243.84,6.31 -330.707,77.08 -86.91,70.75 -140.121,173.74 -159.738,308.99 -15.062,103.91 -2.305,218.99 38.348,345.3 40.613,126.27 102.472,236.71 185.617,331.29 83.1,94.52 178.24,149.61 285.48,165.16 79.16,11.47 145.04,-4.67 197.72,-48.37 52.63,-43.76 84.83,-106.03 96.54,-186.81 7.66,-52.81 4.8,-108.79 -8.49,-167.95 -13.31,-59.2 -37.49,-110.26 -72.5,-153.23 -35.05,-42.96 -80.6,-68.51 -136.65,-76.64 -36.3,-5.26 -69.2,0.9 -98.67,18.53 -29.51,17.58 -46.88,44.55 -52.14,80.84 -3.82,26.37 0.97,45.61 14.38,57.66 37.6,42.47 67.04,83.37 88.29,122.68 21.23,39.27 28.77,80.35 22.55,123.25 -3.34,23.07 -11.41,40.86 -24.15,53.34 -12.78,12.44 -29.88,17.13 -51.29,14.02 -51.15,-7.42 -93.38,-38.4 -126.72,-92.88 -33.38,-54.53 -56.75,-116.84 -70.14,-186.98 -13.43,-70.16 -16.64,-129.14 -9.71,-176.96 10.29,-70.93 34.85,-130.09 73.73,-177.49 38.85,-47.42 91.28,-66.33 157.26,-56.76 42.87,6.21 76.94,20.82 102.26,43.86 25.27,23 52.61,55.19 81.98,96.51 18.07,26.18 33.37,45.65 45.84,58.43 12.44,12.74 26.12,20.2 40.96,22.35 32.98,4.79 61.8,-5.36 86.5,-30.4"
         style="fill:#ffffff;fill-opacity:1;fill-rule:nonzero;stroke:none"
         id="path26" />
      <path
         d="m 2164.09,3825.68 c 23.49,-28.6 55.06,-40.02 94.64,-34.27 47.81,6.93 89.42,33.57 124.8,79.98 35.35,46.36 61.31,99.82 77.8,160.3 16.49,60.49 21.38,113.81 14.69,160.01 -5.98,41.19 -20.81,76.54 -44.42,105.97 -23.64,29.4 -54.42,41.35 -92.34,35.85 -47.85,-6.94 -89.84,-33.65 -126.04,-80.15 -36.19,-46.54 -62.48,-100.43 -78.85,-161.73 -16.37,-61.34 -21.2,-115.08 -14.51,-161.24 5.98,-41.24 20.71,-76.17 44.23,-104.72 z m 336.4,667.62 c 62.5,-36.4 112.87,-87.63 151.09,-153.64 38.2,-66.06 62.93,-137.82 74.17,-215.32 14.83,-102.28 5.39,-211.39 -28.31,-327.42 -33.7,-116.02 -88.63,-216.2 -164.82,-300.49 -76.19,-84.29 -167.08,-134.11 -272.61,-149.41 -79.16,-11.47 -150.03,1 -212.54,37.39 -62.54,36.4 -113.33,87.53 -152.34,153.47 -39.04,65.89 -64.15,137.6 -75.39,215.14 -14.83,102.23 -5.4,211.39 28.3,327.42 33.69,116.02 88.64,216.18 164.82,300.49 76.19,84.29 167.04,134.09 272.61,149.4 80.79,11.71 152.47,-0.63 215.02,-37.03"
         style="fill:#ffffff;fill-opacity:1;fill-rule:nonzero;stroke:none"
         id="path28" />
      <path
         d="m 3141.25,3967.36 c 23.5,-28.6 55.07,-40.02 94.65,-34.27 47.81,6.92 89.41,33.57 124.8,79.98 35.35,46.36 61.3,99.82 77.8,160.3 16.48,60.49 21.38,113.81 14.68,160.01 -5.97,41.19 -20.81,76.54 -44.41,105.96 -23.64,29.41 -54.42,41.36 -92.34,35.86 -47.86,-6.94 -89.84,-33.65 -126.05,-80.15 -36.19,-46.54 -62.47,-100.43 -78.85,-161.73 -16.36,-61.34 -21.2,-115.08 -14.51,-161.24 5.98,-41.24 20.72,-76.17 44.23,-104.72 z m 336.41,667.62 c 62.5,-36.4 112.87,-87.63 151.09,-153.64 38.19,-66.06 62.92,-137.82 74.16,-215.32 14.83,-102.28 5.39,-211.39 -28.31,-327.42 -33.69,-116.02 -88.63,-216.2 -164.81,-300.49 -76.19,-84.29 -167.08,-134.11 -272.61,-149.41 -79.17,-11.47 -150.04,1 -212.55,37.39 -62.54,36.4 -113.33,87.53 -152.33,153.47 -39.04,65.89 -64.16,137.6 -75.4,215.14 -14.82,102.23 -5.39,211.39 28.3,327.42 33.7,116.02 88.64,216.18 164.83,300.49 76.18,84.29 167.03,134.09 272.6,149.4 80.79,11.71 152.48,-0.63 215.03,-37.03"
         style="fill:#ffffff;fill-opacity:1;fill-rule:nonzero;stroke:none"
         id="path30" />
      <path
         d="m 4564.79,4087.87 c 41.92,12.79 73.6,20.77 95.05,23.88 49.48,7.17 91.72,-2.71 126.8,-29.59 35.04,-26.94 56.17,-65.11 63.35,-114.59 10.52,-72.6 -11.23,-134.68 -65.2,-186.27 -54,-51.63 -118.08,-82.79 -192.3,-93.56 -130.3,-18.88 -239.35,1.5 -327.13,61.18 -87.82,59.65 -160.82,150.98 -219.05,273.88 -11.89,-69.09 -21.08,-130.61 -27.54,-184.59 -6.5,-54 -6.74,-101.62 -0.76,-142.83 1.19,-8.28 3.2,-16.39 6.06,-24.38 2.82,-8.03 4.74,-15.33 5.7,-21.9 2.63,-18.17 -7.5,-32.67 -30.31,-43.55 -22.86,-10.89 -46.63,-18.13 -71.36,-21.71 -51.15,-7.42 -95.6,0.03 -133.34,22.34 -37.72,22.33 -60.21,58.2 -67.39,107.69 -5.5,37.91 -2.2,82.15 9.8,132.76 12.05,50.57 31.19,113.14 57.41,187.67 17.1,44.56 30.58,85.25 40.4,122.05 68.76,245.71 85.35,491.43 49.72,737.19 -2.87,19.8 -9.31,52.53 -19.29,98.26 -9.74,32.24 -16.87,64.04 -21.42,95.39 -3.34,23.08 7.22,43.11 31.69,60.16 24.46,17.01 49.9,27.45 76.3,31.28 67.6,9.8 120.28,-10.78 157.98,-61.71 37.7,-50.98 61.81,-112.72 72.33,-185.28 9.32,-64.32 8.1,-140.27 -3.59,-227.86 -11.73,-87.58 -28.57,-183.48 -50.49,-287.69 l 7.42,1.08 c 84.12,12.19 149.26,47.73 195.46,106.64 46.17,58.87 72.11,132.53 77.85,220.93 3.14,59.39 28.64,92.58 76.49,99.52 47.82,6.93 89.03,-10.27 123.68,-51.54 34.6,-41.32 55.63,-87.53 63.03,-138.62 11.25,-77.55 -2.36,-146.46 -40.75,-206.73 -38.42,-60.31 -91.24,-108.39 -158.43,-144.22 -67.22,-35.86 -138.78,-59.27 -214.62,-70.27 -31.35,-4.54 -58.23,-5.08 -80.6,-1.57 18.28,-68.08 53.02,-116.08 104.24,-144.03 51.17,-27.94 113.06,-36.65 185.65,-26.12 29.69,4.3 62.07,13.18 97.16,26.71"
         style="fill:#ffffff;fill-opacity:1;fill-rule:nonzero;stroke:none"
         id="path32" />
      <path
         d="m 5403.55,5419.4 c 33.15,-25.5 52.75,-58.89 58.73,-100.09 5.97,-41.25 -3.28,-79.22 -27.7,-113.9 -24.43,-34.72 -57.3,-55.04 -98.5,-61.02 -41.25,-5.97 -78.51,4.17 -111.77,30.53 -33.3,26.31 -52.92,60.09 -58.9,101.34 -5.98,41.2 3.29,78.78 27.86,112.66 24.53,33.85 57.44,53.79 98.69,59.77 41.2,5.98 78.42,-3.79 111.59,-29.29 z M 4917.12,3974.77 c -11.95,82.46 -8.25,184.85 11.03,307.24 10.46,67.2 29.88,153.76 58.31,259.79 28.41,105.97 64.8,203.45 109.16,292.4 44.34,88.93 92.09,137.13 143.24,144.54 51.09,7.41 82.43,-28.45 93.9,-107.63 8.14,-56.09 9.23,-113.19 3.36,-171.26 -5.9,-58.12 -17.09,-134.7 -33.63,-229.69 -16.1,-86.55 -26.79,-157.97 -32.07,-214.3 -5.33,-56.35 -4.13,-110.91 3.52,-163.68 3.11,-21.45 12.24,-49.61 27.4,-84.43 15.62,-38.16 24.88,-67.12 27.75,-86.91 5.98,-41.24 -9.32,-75.03 -45.93,-101.38 -36.58,-26.37 -77.99,-42.88 -124.15,-49.58 -70.93,-10.28 -126.69,2.68 -167.3,38.9 -40.61,36.18 -66.3,91.42 -77.06,165.63 l 2.47,0.36"
         style="fill:#ffffff;fill-opacity:1;fill-rule:nonzero;stroke:none"
         id="path34" />
      <path
         d="m 5707.23,4657.67 c 70.89,10.27 132.65,40.27 185.24,90 52.54,49.69 73.95,108.36 64.14,176.01 -5.74,39.58 -25.11,56.98 -58.08,52.2 -52.8,-7.65 -98.06,-46.65 -135.86,-116.94 -37.8,-70.32 -60.42,-138.02 -67.81,-203.07 z m 575.92,-182.98 c 24.79,-25.89 39.71,-56.13 44.73,-90.77 11.96,-82.49 -0.26,-157.91 -36.64,-226.33 -36.42,-68.42 -89.37,-124.09 -158.92,-167.02 -69.56,-42.91 -144.76,-70.24 -225.55,-81.96 -133.6,-19.36 -243.84,6.32 -330.71,77.09 -86.9,70.76 -140.11,173.74 -159.72,309 -15.07,103.9 -2.39,219.41 38.16,346.53 40.49,127.12 102.36,237.51 185.61,331.29 83.22,93.71 178.42,148.37 285.65,163.91 79.17,11.48 144.99,-4.23 197.55,-47.12 52.51,-42.91 84.66,-104.78 96.37,-185.59 9.57,-65.97 5.31,-129.75 -12.68,-191.27 -18.04,-61.57 -49.63,-113.73 -94.77,-156.46 -45.19,-42.78 -100.76,-68.92 -166.7,-78.48 -49.49,-7.17 -98.04,-3.27 -145.68,11.71 -47.63,14.96 -84.33,41.65 -110.11,80.03 l 4.34,-47.36 c 10.52,-72.6 34.78,-132.63 72.84,-180.14 38.04,-47.54 90.86,-66.41 158.51,-56.6 42.86,6.22 76.93,20.83 102.25,43.88 25.28,23 52.62,55.19 81.99,96.5 18.07,26.18 33.37,45.65 45.84,58.43 12.44,12.74 26.12,20.2 40.95,22.36 32.98,4.78 61.86,-5.79 86.69,-31.63"
         style="fill:#ffffff;fill-opacity:1;fill-rule:nonzero;stroke:none"
         id="path36" />
      <path
         d="m 6966.47,4822.57 c -44.33,3.66 -76.36,4.08 -96.16,1.21 -49.47,-7.17 -72.18,-24.8 -68.11,-52.82 3.11,-21.46 17.36,-41.29 42.72,-59.48 25.38,-18.22 66.37,-42.59 123,-73.1 83.74,-43.43 149.59,-85.27 197.53,-125.44 47.91,-40.23 76.2,-89.99 84.81,-149.37 9.56,-65.98 -6.78,-124.74 -48.95,-176.32 -42.21,-51.6 -97.29,-92.85 -165.2,-123.74 -67.94,-30.88 -134.9,-51.13 -200.85,-60.69 -56.08,-8.14 -117.44,-6.05 -184.02,6.16 -66.6,12.21 -125.16,35.73 -175.66,70.51 -50.51,34.75 -79.95,81 -88.32,138.75 -6.22,42.87 1.59,84.85 23.41,125.91 21.84,41.04 53.36,64.56 94.61,70.54 18.13,2.63 38.45,-1.18 61,-11.36 22.52,-10.23 51.37,-26.25 86.53,-48.07 48.14,-30.09 90.07,-52.22 125.82,-66.37 35.73,-14.21 72.55,-18.54 110.51,-13.04 26.36,3.83 48.22,15.84 65.5,36.02 17.28,20.19 24.13,42.65 20.55,67.39 -5.5,37.92 -27.76,72.15 -66.68,102.74 -38.97,30.54 -96.89,67.17 -173.82,109.93 -91.81,52.36 -162.54,98.95 -212.22,139.73 -49.73,40.79 -78.73,90.01 -87.1,147.77 -8.61,59.37 4,111.73 37.85,157.03 33.84,45.34 79.14,81.35 135.88,108.13 56.75,26.73 113.14,44.18 169.23,52.31 92.34,13.39 181.93,8.27 268.71,-15.34 86.78,-23.65 136.15,-76.68 148.11,-159.13 7.41,-51.14 -0.89,-95.73 -24.83,-133.69 -23.97,-38 -61.53,-60.69 -112.63,-68.11 -19.79,-2.87 -50.2,-2.23 -91.22,1.94"
         style="fill:#ffffff;fill-opacity:1;fill-rule:nonzero;stroke:none"
         id="path38" />
      <path
         d="m 574.84,2684.56 c 57.394,45.34 109.598,103.43 156.594,174.27 46.968,70.78 66.308,135.04 57.937,192.78 -4.308,29.69 -15.801,53.68 -34.449,72.04 -18.684,18.33 -41.207,25.61 -67.57,21.79 -62.7,-9.09 -105.719,-49.04 -129.137,-119.77 -23.442,-70.77 -29.985,-141.61 -19.703,-212.5 6.937,-47.86 19.031,-90.7 36.328,-128.61 z m -82.926,-664.97 c 38.102,-18.92 77.754,-25.36 119.004,-19.38 29.684,4.31 62.637,14.96 98.918,32.04 -87.297,44.57 -169.227,110.15 -245.758,196.74 -31.035,-41.56 -43.668,-82.11 -37.926,-121.69 5.739,-39.59 27.657,-68.84 65.762,-87.71 z m 826.466,118.56 c 12.71,-6.6 20.78,-21.41 24.13,-44.5 6.22,-42.9 -10.9,-81.57 -51.37,-116.06 -40.47,-34.51 -82.97,-54.96 -127.49,-61.42 -61.04,-8.85 -131.76,2.75 -212.189,34.9 -47.707,-77.62 -110.145,-143.52 -187.313,-197.64 -77.199,-54.14 -160.308,-87.66 -249.375,-100.58 -67.64,-9.8 -133.82,-6.34 -198.523,10.37 -64.742,16.7 -120.141,47.38 -166.168,92.1 -46.031,44.67 -74.1015,101.66 -84.1445,170.93 -12.9102,89.05 8.0234,177.11 62.7225,264.21 54.715,87.06 124.192,165.35 208.445,234.82 -66.91,89.64 -108.453,190.53 -124.718,302.71 -16.977,117.09 -4.168,231.78 38.519,344.06 42.649,112.27 109.371,206.55 200.211,282.88 90.801,76.32 195.594,123.09 314.344,140.3 92.34,13.39 175.465,0.58 249.319,-38.36 73.84,-38.99 117.23,-102.98 130.14,-192.05 12.68,-87.44 -4.47,-181.25 -51.38,-281.51 -46.95,-100.26 -109.274,-193.1 -186.962,-278.44 -77.726,-85.39 -155.875,-153.12 -234.492,-203.23 11.355,-32.06 42.551,-73 93.59,-122.83 50.996,-49.87 95.129,-87.24 132.449,-112.15 6.738,34.65 6.199,79.21 -1.691,133.63 l -15.387,88.7 c -6.938,47.82 -5.563,87.6 4.164,119.32 9.691,31.72 34.363,50.46 73.949,56.19 47.82,6.93 84.38,-10.1 109.7,-51.02 25.28,-40.98 41.9,-88.66 49.79,-143.08 7.17,-49.48 8.67,-100.64 4.57,-153.42 -4.15,-52.81 -14.77,-101.52 -31.87,-146.07 62.73,-26.26 120.48,-35.57 173.28,-27.91 23.08,3.34 41,1.71 53.75,-4.85"
         style="fill:#ffffff;fill-opacity:1;fill-rule:nonzero;stroke:none"
         id="path40" />
      <path
         d="m 1635.26,3848.08 c 24.68,-25.07 39.53,-54.89 44.56,-89.53 11.96,-82.49 -0.27,-157.91 -36.64,-226.33 -36.42,-68.42 -89.37,-124.1 -158.92,-167.02 -69.55,-42.92 -144.76,-70.24 -225.55,-81.95 -133.59,-19.37 -243.85,6.32 -330.706,77.08 -86.906,70.76 -140.121,173.75 -159.734,309.01 -15.067,103.89 -2.313,218.98 38.339,345.28 40.618,126.27 102.485,236.72 185.618,331.29 83.103,94.54 178.253,149.61 285.473,165.16 79.17,11.48 145.05,-4.66 197.72,-48.37 52.64,-43.76 84.84,-106.02 96.55,-186.8 7.66,-52.81 4.81,-108.79 -8.48,-167.95 -13.32,-59.19 -37.49,-110.26 -72.51,-153.23 -35.05,-42.97 -80.6,-68.51 -136.65,-76.64 -36.3,-5.27 -69.2,0.89 -98.67,18.53 -29.51,17.58 -46.88,44.55 -52.14,80.85 -3.83,26.36 0.96,45.6 14.38,57.64 37.61,42.49 67.04,83.38 88.3,122.68 21.22,39.27 28.76,80.35 22.54,123.25 -3.35,23.09 -11.41,40.86 -24.15,53.34 -12.77,12.44 -29.88,17.13 -51.29,14.02 -51.14,-7.41 -93.38,-38.39 -126.72,-92.88 -33.38,-54.51 -56.75,-116.84 -70.14,-186.98 -13.43,-70.15 -16.64,-129.14 -9.71,-176.96 10.29,-70.93 34.85,-130.08 73.73,-177.49 38.85,-47.41 91.28,-66.33 157.26,-56.76 42.87,6.21 76.94,20.83 102.26,43.86 25.27,23.01 52.62,55.2 81.99,96.52 18.07,26.18 33.36,45.64 45.83,58.42 12.44,12.74 26.13,20.21 40.96,22.36 32.98,4.78 61.8,-5.37 86.5,-30.4"
         style="fill:#0c0a3a;fill-opacity:1;fill-rule:nonzero;stroke:none"
         id="path42" />
      <path
         d="m 2101.82,3887.94 c 23.49,-28.6 55.06,-40 94.64,-34.26 47.82,6.93 89.42,33.56 124.8,79.98 35.36,46.36 61.31,99.82 77.8,160.29 16.49,60.5 21.39,113.81 14.69,160.01 -5.98,41.21 -20.81,76.55 -44.41,105.97 -23.65,29.41 -54.43,41.35 -92.35,35.86 -47.85,-6.94 -89.84,-33.66 -126.04,-80.16 -36.19,-46.54 -62.48,-100.42 -78.85,-161.72 -16.36,-61.33 -21.2,-115.09 -14.51,-161.24 5.98,-41.25 20.72,-76.17 44.23,-104.73 z m 336.4,667.63 c 62.51,-36.4 112.87,-87.64 151.1,-153.65 38.19,-66.06 62.93,-137.81 74.16,-215.31 14.83,-102.28 5.39,-211.4 -28.3,-327.43 -33.7,-116.02 -88.65,-216.18 -164.82,-300.48 -76.2,-84.3 -167.09,-134.1 -272.62,-149.4 -79.17,-11.48 -150.04,0.98 -212.54,37.37 -62.54,36.42 -113.34,87.54 -152.34,153.48 -39.04,65.88 -64.15,137.59 -75.39,215.13 -14.82,102.25 -5.4,211.4 28.3,327.42 33.69,116.02 88.63,216.19 164.83,300.49 76.17,84.29 167.03,134.1 272.6,149.41 80.79,11.71 152.47,-0.63 215.02,-37.03"
         style="fill:#0c0a3a;fill-opacity:1;fill-rule:nonzero;stroke:none"
         id="path44" />
      <path
         d="m 3078.98,4029.62 c 23.49,-28.6 55.07,-40 94.65,-34.26 47.81,6.93 89.42,33.56 124.8,79.98 35.35,46.36 61.31,99.82 77.8,160.29 16.48,60.5 21.38,113.81 14.68,160.01 -5.97,41.2 -20.8,76.55 -44.41,105.97 -23.64,29.4 -54.42,41.35 -92.34,35.85 -47.85,-6.93 -89.84,-33.65 -126.04,-80.15 -36.2,-46.53 -62.49,-100.42 -78.86,-161.72 -16.36,-61.33 -21.19,-115.09 -14.5,-161.24 5.98,-41.25 20.71,-76.17 44.22,-104.73 z m 336.4,667.63 c 62.51,-36.4 112.88,-87.64 151.1,-153.65 38.19,-66.06 62.92,-137.81 74.16,-215.31 14.83,-102.28 5.39,-211.4 -28.31,-327.43 -33.69,-116.02 -88.63,-216.18 -164.81,-300.48 -76.19,-84.3 -167.09,-134.1 -272.61,-149.4 -79.17,-11.48 -150.04,0.98 -212.54,37.37 -62.55,36.41 -113.34,87.54 -152.34,153.48 -39.04,65.88 -64.16,137.59 -75.4,215.13 -14.83,102.25 -5.39,211.4 28.3,327.42 33.7,116.02 88.64,216.19 164.82,300.49 76.19,84.29 167.04,134.1 272.61,149.41 80.79,11.71 152.48,-0.63 215.02,-37.03"
         style="fill:#0c0a3a;fill-opacity:1;fill-rule:nonzero;stroke:none"
         id="path46" />
      <path
         d="m 4502.53,4150.14 c 41.91,12.78 73.59,20.78 95.04,23.89 49.48,7.17 91.72,-2.73 126.8,-29.61 35.05,-26.93 56.18,-65.11 63.34,-114.59 10.53,-72.58 -11.22,-134.67 -65.19,-186.27 -54,-51.64 -118.07,-82.79 -192.29,-93.55 -130.31,-18.9 -239.35,1.49 -327.13,61.18 -87.83,59.65 -160.82,150.98 -219.06,273.88 -11.88,-69.1 -21.08,-130.61 -27.54,-184.6 -6.5,-53.99 -6.73,-101.61 -0.76,-142.82 1.2,-8.28 3.2,-16.4 6.06,-24.39 2.82,-8.03 4.75,-15.32 5.7,-21.89 2.63,-18.18 -7.5,-32.67 -30.31,-43.56 -22.85,-10.89 -46.63,-18.12 -71.37,-21.71 -51.14,-7.42 -95.59,0.03 -133.33,22.35 -37.72,22.31 -60.21,58.2 -67.39,107.68 -5.5,37.92 -2.2,82.17 9.8,132.77 12.05,50.56 31.19,113.14 57.4,187.66 17.11,44.56 30.59,85.27 40.4,122.05 68.77,245.71 85.37,491.44 49.73,737.2 -2.87,19.79 -9.31,52.52 -19.3,98.25 -9.72,32.25 -16.86,64.05 -21.41,95.41 -3.34,23.06 7.21,43.11 31.7,60.15 24.45,17.01 49.89,27.44 76.29,31.27 67.6,9.8 120.28,-10.78 157.98,-61.71 37.7,-50.98 61.8,-112.71 72.32,-185.28 9.33,-64.32 8.11,-140.26 -3.58,-227.85 -11.74,-87.57 -28.57,-183.48 -50.49,-287.69 l 7.42,1.08 c 84.12,12.19 149.26,47.72 195.46,106.64 46.17,58.87 72.11,132.53 77.84,220.94 3.15,59.38 28.65,92.56 76.51,99.5 47.82,6.93 89.02,-10.27 123.66,-51.54 34.61,-41.32 55.63,-87.52 63.04,-138.62 11.24,-77.55 -2.36,-146.45 -40.75,-206.73 -38.42,-60.3 -91.24,-108.38 -158.43,-144.21 -67.22,-35.87 -138.78,-59.26 -214.62,-70.26 -31.35,-4.55 -58.22,-5.09 -80.6,-1.59 18.28,-68.08 53.02,-116.08 104.24,-144.02 51.17,-27.94 113.06,-36.65 185.65,-26.13 29.69,4.31 62.06,13.19 97.17,26.72"
         style="fill:#0c0a3a;fill-opacity:1;fill-rule:nonzero;stroke:none"
         id="path48" />
      <path
         d="m 5341.29,5481.67 c 33.14,-25.51 52.74,-58.9 58.72,-100.1 5.98,-41.25 -3.27,-79.22 -27.7,-113.89 -24.44,-34.73 -57.3,-55.04 -98.5,-61.01 -41.24,-5.98 -78.52,4.16 -111.78,30.53 -33.29,26.3 -52.92,60.07 -58.9,101.32 -5.97,41.21 3.31,78.78 27.88,112.66 24.53,33.87 57.44,53.79 98.69,59.78 41.2,5.97 78.41,-3.79 111.59,-29.29 z M 4854.86,4037.04 c -11.95,82.45 -8.26,184.85 11.02,307.24 10.46,67.19 29.88,153.75 58.32,259.78 28.4,105.99 64.78,203.45 109.15,292.41 44.34,88.92 92.09,137.12 143.23,144.53 51.11,7.41 82.43,-28.45 93.92,-107.62 8.12,-56.08 9.23,-113.2 3.36,-171.27 -5.9,-58.12 -17.1,-134.7 -33.65,-229.68 -16.09,-86.56 -26.78,-157.97 -32.07,-214.31 -5.32,-56.34 -4.12,-110.9 3.53,-163.67 3.1,-21.44 12.25,-49.61 27.4,-84.44 15.63,-38.15 24.88,-67.12 27.75,-86.9 5.98,-41.25 -9.32,-75.03 -45.92,-101.38 -36.59,-26.38 -78.01,-42.89 -124.16,-49.58 -70.93,-10.29 -126.68,2.67 -167.3,38.9 -40.61,36.18 -66.3,91.42 -77.06,165.63 l 2.48,0.36"
         style="fill:#0c0a3a;fill-opacity:1;fill-rule:nonzero;stroke:none"
         id="path50" />
      <path
         d="m 5644.96,4719.93 c 70.89,10.27 132.66,40.27 185.24,90 52.54,49.7 73.95,108.37 64.15,176.02 -5.75,39.58 -25.12,56.98 -58.09,52.2 -52.8,-7.66 -98.07,-46.66 -135.86,-116.95 -37.8,-70.32 -60.43,-138.02 -67.8,-203.07 z m 575.92,-182.98 c 24.78,-25.88 39.72,-56.13 44.73,-90.76 11.96,-82.49 -0.27,-157.91 -36.65,-226.33 -36.41,-68.43 -89.36,-124.1 -158.91,-167.02 -69.55,-42.92 -144.76,-70.25 -225.55,-81.96 -133.59,-19.37 -243.84,6.32 -330.7,77.08 -86.92,70.76 -140.12,173.75 -159.74,309.01 -15.06,103.9 -2.37,219.4 38.17,346.53 40.49,127.11 102.35,237.51 185.61,331.28 83.22,93.72 178.43,148.38 285.66,163.93 79.17,11.48 144.99,-4.24 197.53,-47.14 52.52,-42.9 84.66,-104.78 96.38,-185.58 9.56,-65.98 5.31,-129.75 -12.68,-191.28 -18.03,-61.57 -49.62,-113.71 -94.77,-156.45 -45.18,-42.78 -100.75,-68.92 -166.7,-78.48 -49.48,-7.17 -98.04,-3.28 -145.68,11.71 -47.64,14.96 -84.34,41.65 -110.11,80.02 l 4.34,-47.36 c 10.52,-72.59 34.78,-132.62 72.85,-180.14 38.04,-47.54 90.86,-66.4 158.5,-56.6 42.87,6.22 76.94,20.83 102.25,43.88 25.27,23.01 52.63,55.19 81.99,96.51 18.08,26.18 33.36,45.64 45.84,58.43 12.44,12.73 26.12,20.21 40.96,22.36 32.97,4.78 61.85,-5.8 86.68,-31.64"
         style="fill:#0c0a3a;fill-opacity:1;fill-rule:nonzero;stroke:none"
         id="path52" />
      <path
         d="m 6904.21,4884.83 c -44.35,3.67 -76.37,4.08 -96.16,1.21 -49.49,-7.17 -72.18,-24.79 -68.12,-52.82 3.11,-21.45 17.35,-41.29 42.73,-59.47 25.37,-18.23 66.35,-42.6 122.99,-73.11 83.73,-43.42 149.59,-85.26 197.53,-125.44 47.9,-40.22 76.19,-89.98 84.81,-149.37 9.56,-65.97 -6.78,-124.74 -48.96,-176.32 -42.2,-51.59 -97.27,-92.85 -165.18,-123.72 -67.94,-30.89 -134.9,-51.14 -200.85,-60.7 -56.1,-8.13 -117.45,-6.06 -184.03,6.15 -66.61,12.21 -125.15,35.73 -175.67,70.52 -50.5,34.75 -79.94,80.99 -88.31,138.76 -6.22,42.86 1.58,84.84 23.42,125.9 21.83,41.04 53.35,64.57 94.6,70.54 18.12,2.63 38.44,-1.17 61,-11.36 22.52,-10.24 51.37,-26.26 86.54,-48.08 48.13,-30.08 90.06,-52.22 125.82,-66.37 35.72,-14.2 72.55,-18.53 110.49,-13.03 26.37,3.83 48.23,15.83 65.51,36.02 17.29,20.18 24.13,42.65 20.54,67.39 -5.5,37.93 -27.74,72.14 -66.67,102.73 -38.96,30.55 -96.88,67.18 -173.82,109.95 -91.81,52.35 -162.54,98.93 -212.22,139.72 -49.72,40.78 -78.73,90.01 -87.1,147.77 -8.61,59.37 4.01,111.72 37.85,157.04 33.84,45.32 79.14,81.33 135.88,108.11 56.74,26.74 113.14,44.18 169.23,52.32 92.35,13.39 181.94,8.27 268.71,-15.34 86.78,-23.66 136.15,-76.68 148.1,-159.13 7.41,-51.15 -0.88,-95.73 -24.81,-133.69 -23.98,-38.01 -61.54,-60.7 -112.64,-68.11 -19.8,-2.87 -50.2,-2.23 -91.21,1.93"
         style="fill:#0c0a3a;fill-opacity:1;fill-rule:nonzero;stroke:none"
         id="path54" />
      <path
         d="m 2777.39,2582.6 c 24.67,-25.07 39.53,-54.9 44.55,-89.53 11.96,-82.48 -0.27,-157.9 -36.64,-226.33 -36.42,-68.43 -89.36,-124.09 -158.92,-167.01 -69.55,-42.92 -144.76,-70.25 -225.55,-81.96 -133.59,-19.37 -243.84,6.32 -330.7,77.08 -86.91,70.75 -140.13,173.74 -159.74,309 -15.06,103.9 -2.3,218.98 38.35,345.3 40.61,126.26 102.47,236.71 185.61,331.28 83.11,94.53 178.25,149.62 285.48,165.16 79.16,11.48 145.05,-4.66 197.72,-48.36 52.64,-43.76 84.83,-106.03 96.55,-186.81 7.65,-52.81 4.8,-108.8 -8.49,-167.96 -13.32,-59.19 -37.49,-110.25 -72.5,-153.22 -35.06,-42.96 -80.61,-68.52 -136.66,-76.64 -36.3,-5.27 -69.2,0.9 -98.67,18.52 -29.51,17.58 -46.87,44.55 -52.14,80.85 -3.82,26.37 0.97,45.61 14.38,57.65 37.61,42.48 67.04,83.38 88.3,122.68 21.22,39.27 28.76,80.36 22.54,123.26 -3.34,23.07 -11.41,40.86 -24.15,53.34 -12.77,12.43 -29.87,17.12 -51.29,14.02 -51.14,-7.42 -93.37,-38.4 -126.71,-92.89 -33.38,-54.52 -56.76,-116.84 -70.15,-186.97 -13.42,-70.16 -16.64,-129.14 -9.7,-176.97 10.29,-70.92 34.84,-130.08 73.72,-177.49 38.85,-47.42 91.28,-66.33 157.26,-56.76 42.87,6.22 76.95,20.82 102.26,43.86 25.28,23.01 52.62,55.2 81.99,96.52 18.07,26.18 33.36,45.64 45.84,58.42 12.44,12.74 26.11,20.21 40.96,22.36 32.97,4.78 61.8,-5.36 86.5,-30.4"
         style="fill:#0c0a3a;fill-opacity:1;fill-rule:nonzero;stroke:none"
         id="path56" />
      <path
         d="m 3243.95,2622.47 c 23.48,-28.6 55.05,-40.02 94.64,-34.29 47.81,6.94 89.42,33.59 124.8,79.99 35.35,46.37 61.3,99.83 77.8,160.31 16.48,60.48 21.38,113.8 14.68,160.01 -5.97,41.19 -20.8,76.54 -44.42,105.96 -23.63,29.41 -54.41,41.35 -92.33,35.85 -47.86,-6.93 -89.84,-33.65 -126.04,-80.14 -36.2,-46.55 -62.48,-100.43 -78.86,-161.73 -16.36,-61.34 -21.2,-115.09 -14.5,-161.24 5.97,-41.24 20.71,-76.18 44.23,-104.72 z m 336.39,667.62 c 62.51,-36.4 112.88,-87.64 151.1,-153.65 38.19,-66.06 62.93,-137.82 74.16,-215.32 14.83,-102.27 5.39,-211.38 -28.31,-327.42 -33.69,-116.02 -88.63,-216.19 -164.81,-300.49 -76.19,-84.29 -167.08,-134.1 -272.61,-149.4 -79.17,-11.48 -150.04,0.98 -212.55,37.38 -62.54,36.41 -113.33,87.54 -152.33,153.48 -39.04,65.89 -64.16,137.59 -75.4,215.13 -14.82,102.24 -5.39,211.39 28.3,327.43 33.7,116.01 88.64,216.18 164.82,300.48 76.19,84.3 167.05,134.1 272.61,149.4 80.79,11.72 152.48,-0.63 215.02,-37.02"
         style="fill:#0c0a3a;fill-opacity:1;fill-rule:nonzero;stroke:none"
         id="path58" />
      <path
         d="m 5119.31,3572.59 c 25.04,-27.56 40.8,-63.56 47.25,-108.09 11.96,-82.49 1.44,-190.11 -31.49,-322.82 -53.08,-214.84 -69.42,-392.35 -49.09,-532.52 1.67,-11.56 5.75,-28.22 12.29,-49.99 6.52,-21.8 10.51,-37.64 11.94,-47.53 4.8,-33.02 -2.82,-58.94 -22.81,-77.82 -19.99,-18.92 -47.3,-30.86 -81.94,-35.88 -52.8,-7.66 -99.65,4.89 -140.6,37.7 -40.99,32.79 -65.26,75.56 -72.92,128.36 -5.49,37.92 -4.6,78.04 2.75,120.38 7.33,42.32 18.46,93.18 33.44,152.62 0.67,6.81 4.71,25.51 12.08,56.06 7.34,30.5 10.09,52.38 8.17,65.59 l -1.07,7.42 -10.61,3.52 c -14.85,-2.15 -30.43,-16.64 -46.75,-43.4 -16.33,-26.81 -38.95,-68.41 -67.8,-124.77 -47.18,-92.72 -89.68,-165.42 -127.52,-218.03 -37.83,-52.65 -79.86,-82.32 -126.02,-89.01 -37.96,-5.5 -67.9,3.62 -89.85,27.4 -21.99,23.73 -35.82,55.44 -41.56,95.01 -5.97,41.21 -9.03,85.4 -9.11,132.55 -0.13,47.1 -0.18,76.58 -0.19,88.37 2.41,87.89 -0.69,161.57 -9.3,220.94 -5.5,37.92 -13.2,56.19 -23.1,54.76 -34.63,-5.03 -56.69,-56.22 -66.13,-153.58 -9.49,-97.35 -11.38,-203.33 -5.7,-317.83 5.63,-114.54 11.83,-194.9 18.53,-241.06 5.73,-39.59 -1.39,-71.79 -21.36,-96.56 -20.01,-24.8 -49.77,-40.05 -89.35,-45.8 -75.88,-10.99 -135.36,10.27 -178.49,63.79 -43.12,53.52 -70.66,121.51 -82.62,204 -16.73,115.42 -6.73,249.48 30.1,402.2 36.79,152.67 93.47,296.02 170.03,430.06 76.55,134.01 163.43,231.65 260.64,292.9 36.95,23.88 73.56,38.46 109.85,43.72 46.15,6.69 83.31,-2.68 111.42,-28.05 28.08,-25.41 45.62,-62.02 52.55,-109.84 6.22,-42.9 6.19,-89.2 -0.06,-138.93 -6.28,-49.77 -16.41,-107.64 -30.39,-173.64 -13.56,-69.34 -22.78,-121.63 -27.78,-156.85 -5,-35.26 -5.1,-69.37 -0.32,-102.35 3.83,-26.4 15.63,-38.13 35.43,-35.26 23.07,3.34 45.94,25.6 68.62,66.77 22.65,41.17 49.9,102.79 81.81,184.89 49.44,123.36 94.9,219.19 136.38,287.52 41.45,68.29 91.02,106.66 148.77,115.03 42.87,6.21 76.83,-4.45 101.88,-31.95"
         style="fill:#0c0a3a;fill-opacity:1;fill-rule:nonzero;stroke:none"
         id="path60" />
      <path
         d="m 5522.96,3271.16 c 70.88,10.27 132.64,40.27 185.22,90 52.55,49.7 73.96,108.37 64.15,176.02 -5.74,39.58 -25.11,56.98 -58.08,52.2 -52.8,-7.65 -98.07,-46.66 -135.86,-116.95 -37.79,-70.31 -60.42,-138.02 -67.81,-203.07 z m 575.91,-182.98 c 24.78,-25.88 39.7,-56.12 44.73,-90.76 11.96,-82.49 -0.27,-157.91 -36.65,-226.34 -36.41,-68.41 -89.35,-124.09 -158.9,-167.02 -69.56,-42.91 -144.77,-70.23 -225.56,-81.95 -133.59,-19.37 -243.85,6.32 -330.7,77.09 -86.91,70.75 -140.13,173.74 -159.74,309 -15.07,103.9 -2.37,219.41 38.16,346.53 40.5,127.11 102.37,237.51 185.62,331.28 83.22,93.73 178.43,148.37 285.65,163.92 79.17,11.49 144.99,-4.23 197.55,-47.13 52.51,-42.9 84.65,-104.78 96.37,-185.58 9.57,-65.98 5.31,-129.75 -12.68,-191.27 -18.03,-61.58 -49.62,-113.73 -94.77,-156.47 -45.19,-42.77 -100.75,-68.91 -166.7,-78.47 -49.48,-7.17 -98.04,-3.28 -145.67,11.71 -47.64,14.96 -84.35,41.64 -110.12,80.02 l 4.33,-47.36 c 10.53,-72.6 34.79,-132.62 72.86,-180.14 38.03,-47.54 90.85,-66.4 158.49,-56.6 42.87,6.22 76.95,20.83 102.26,43.89 25.27,23 52.62,55.18 81.99,96.5 18.07,26.18 33.36,45.65 45.83,58.43 12.44,12.73 26.12,20.21 40.97,22.35 32.98,4.79 61.85,-5.79 86.68,-31.63"
         style="fill:#0c0a3a;fill-opacity:1;fill-rule:nonzero;stroke:none"
         id="path62" />
      <path
         d="m 6631.76,3106.08 c 25.39,-30.03 57.03,-42.24 95,-36.74 36.25,5.26 69.68,30.32 100.24,75.16 30.52,44.84 53.39,96.15 68.61,153.92 15.19,57.78 20.29,103.97 15.27,138.61 -4.79,32.98 -18.57,58.33 -41.34,76.09 -22.78,17.74 -51.49,24.12 -86.13,19.1 -42.91,-6.22 -80.33,-26.8 -112.29,-61.74 -31.99,-34.95 -55.82,-76.73 -71.5,-125.31 -15.68,-48.6 -20.55,-93.52 -14.57,-134.72 5.74,-39.58 21.29,-74.39 46.71,-104.37 z m 634.9,1535.62 c 36.03,-39.42 58.1,-87.16 66.22,-143.22 7.42,-51.13 10.39,-103.74 8.99,-157.82 -1.42,-54.12 -5.94,-118.75 -13.55,-193.94 -8.55,-80.41 -23.54,-192.03 -44.9,-334.88 -27.7,-180.83 -46.94,-332.64 -57.74,-455.45 -10.85,-122.83 -8.7,-236.19 6.37,-340.09 8.85,-61.03 29.15,-131.34 60.89,-210.92 l 1.43,-9.9 c 3.59,-24.73 -11.39,-46.28 -44.93,-64.61 -33.57,-18.32 -65.17,-29.66 -94.85,-33.97 -69.28,-10.04 -124.81,4.21 -166.6,42.79 -41.83,38.54 -67.83,93.3 -78.12,164.23 -29.82,-61.6 -73.06,-114.59 -129.76,-159.01 -56.7,-44.44 -118.07,-71.41 -184.03,-80.98 -69.25,-10.04 -131.27,-0.52 -186,28.6 -54.74,29.08 -99.15,71.06 -133.2,125.94 -34.06,54.8 -55.97,116.03 -65.78,183.69 -15.78,108.85 -4.84,219.04 32.9,330.6 37.7,111.56 97.93,207.01 180.76,286.38 82.79,79.34 178.61,126.93 287.47,142.71 97.29,14.12 179.95,-4.21 247.94,-54.97 2.07,20.51 5.21,42.43 9.4,65.77 4.19,23.34 7.67,48.67 10.44,76.04 21.61,141.17 36.79,262.96 45.55,365.27 8.74,102.31 8.99,205.04 0.77,308.29 -2.93,43.33 3.87,80.51 20.45,111.57 16.54,31.01 44.62,49.41 84.21,55.14 54.41,7.89 99.64,-7.89 135.67,-47.26"
         style="fill:#0c0a3a;fill-opacity:1;fill-rule:nonzero;stroke:none"
         id="path64" />
      <path
         d="m 8466.35,4032.61 c 26.53,-8.78 41.72,-26.4 45.53,-52.76 0.97,-6.6 -0.68,-18.64 -4.87,-36.06 -67.27,-186.57 -112.84,-476.08 -136.77,-868.55 -7.01,-149.21 -19.69,-273.52 -38.1,-373.03 -18.41,-99.5 -53.98,-193.89 -106.7,-283.23 -52.74,-89.3 -129.94,-172.49 -231.56,-249.54 -85.22,-62.88 -188.82,-103.14 -310.85,-120.84 -85.78,-12.44 -170.44,-9.14 -254.04,9.9 -83.58,19.05 -155.35,55.37 -215.34,108.96 -59.95,53.61 -96.31,124.13 -108.97,211.52 -9.57,65.99 0.32,128.49 29.66,187.44 29.33,59 76.16,93.13 140.48,102.46 41.24,5.97 80.66,1.2 118.29,-14.43 37.62,-15.57 84.16,-40.41 139.61,-74.46 64.65,-39.45 120.14,-68.05 166.52,-85.74 46.34,-17.68 97.55,-22.49 153.63,-14.36 37.92,5.5 74.07,17.49 108.46,35.94 73.68,37.64 128.3,125.56 163.84,263.71 35.54,138.15 55.28,269.01 59.28,392.54 -50.93,-101.71 -111.57,-191.73 -181.85,-270.13 -70.34,-78.39 -148.37,-123.8 -234.1,-136.24 -103.91,-15.06 -183.11,17.23 -237.6,96.91 -54.49,79.64 -90.11,177.19 -106.85,292.66 -12.67,87.4 -13.5,191.68 -2.42,312.87 11.05,121.15 40,229.35 86.82,324.53 46.81,95.2 114.76,149.26 203.83,162.17 36.25,5.26 65.32,-3.59 87.19,-26.51 21.84,-22.96 35.53,-53.38 41.03,-91.3 6.93,-47.86 6.27,-95.51 -2,-143 -8.27,-47.55 -22.35,-107.23 -42.23,-179.15 -19.65,-73.58 -33.71,-133.31 -42.23,-179.15 -8.5,-45.86 -9.41,-91.89 -2.71,-138.06 4.29,-29.67 14.37,-55.6 30.2,-77.71 15.85,-22.13 37.76,-31.15 65.82,-27.08 47.82,6.93 84.51,41.3 110.08,103.11 25.54,61.79 52.81,155.42 81.79,280.86 24.29,111.26 48.47,202.8 72.61,274.49 24.1,71.7 57.84,135.07 101.23,190.23 43.36,55.11 99.69,87.71 168.96,97.75 29.69,4.3 57.79,2.07 84.33,-6.72"
         style="fill:#0c0a3a;fill-opacity:1;fill-rule:nonzero;stroke:none"
         id="path66" />
      <path
         d="m 512.598,2746.81 c 57.402,45.34 109.597,103.42 156.59,174.26 46.968,70.78 66.308,135.05 57.937,192.8 -4.305,29.68 -15.797,53.67 -34.449,72.04 -18.676,18.33 -41.203,25.59 -67.563,21.77 -62.703,-9.09 -105.73,-49.04 -129.136,-119.75 -23.442,-70.76 -29.985,-141.62 -19.707,-212.51 6.937,-47.86 19.027,-90.69 36.328,-128.61 z m -82.926,-664.98 c 38.101,-18.89 77.75,-25.36 119,-19.37 29.687,4.31 62.637,14.96 98.922,32.03 -87.301,44.57 -169.231,110.17 -245.758,196.75 -31.039,-41.56 -43.668,-82.1 -37.93,-121.69 5.742,-39.59 27.66,-68.85 65.766,-87.72 z m 826.458,118.57 c 12.72,-6.6 20.79,-21.42 24.13,-44.49 6.22,-42.9 -10.9,-81.58 -51.36,-116.06 -40.47,-34.52 -82.97,-54.97 -127.5,-61.42 -61.03,-8.85 -131.748,2.75 -212.181,34.9 -47.707,-77.64 -110.141,-143.54 -187.305,-197.65 -77.211,-54.14 -160.316,-87.66 -249.387,-100.57 -67.64,-9.82 -133.816,-6.35 -198.519,10.37 -64.746,16.7 -120.141,47.37 -166.1721,92.09 -46.0234,44.67 -74.0976,101.66 -84.14059,170.93 -12.91406,89.06 8.02349,177.11 62.73049,264.21 54.7072,87.07 124.1792,165.35 208.4332,234.82 -66.91,89.65 -108.449,190.54 -124.714,302.71 -16.977,117.08 -4.168,231.78 38.515,344.07 42.653,112.26 109.375,206.56 200.211,282.87 90.805,76.32 195.602,123.08 314.344,140.3 92.351,13.39 175.473,0.58 249.312,-38.36 73.853,-38.99 117.243,-102.99 130.153,-192.05 12.68,-87.44 -4.47,-181.25 -51.38,-281.5 C 984.344,2945.3 922.027,2852.48 844.336,2767.12 766.609,2681.74 688.457,2613.99 609.84,2563.9 c 11.359,-32.07 42.551,-73.01 93.586,-122.84 51.008,-49.87 95.137,-87.24 132.457,-112.14 6.738,34.63 6.195,79.2 -1.695,133.62 l -15.383,88.7 c -6.934,47.83 -5.563,87.6 4.164,119.33 9.691,31.71 34.367,50.45 73.949,56.19 47.812,6.93 84.387,-10.11 109.702,-51.04 25.28,-40.96 41.9,-88.65 49.79,-143.06 7.17,-49.49 8.67,-100.66 4.56,-153.43 -4.14,-52.81 -14.76,-101.52 -31.86,-146.08 62.73,-26.25 120.48,-35.56 173.28,-27.91 23.07,3.34 40.99,1.72 53.74,-4.84"
         style="fill:#0c0a3a;fill-opacity:1;fill-rule:nonzero;stroke:none"
         id="path68" />
      <path
         d="m 3647.19,1794.99 c 16.71,-8.89 30.43,-21.78 41.15,-38.68 10.72,-16.92 17.49,-35.08 20.3,-54.5 1.96,-13.5 1.04,-28.1 -2.74,-43.79 -3.79,-15.73 -10.35,-29.35 -19.7,-40.9 -9.35,-11.56 -21.03,-18.34 -35.07,-20.37 -12.95,-1.88 -23.67,-0.28 -32.11,4.85 -8.47,5.1 -13.59,13.86 -15.39,26.29 -0.54,3.77 -0.78,9.1 -0.67,16.02 0.1,6.9 -0.08,11.97 -0.55,15.21 -1.17,8.1 -4.07,16.63 -8.67,25.62 -4.61,8.95 -10.16,12.98 -16.63,12.04 -28.07,-4.07 -45.52,-27.27 -52.33,-69.58 -6.81,-42.32 -9.4,-86.24 -7.76,-131.74 10.92,8.19 27.19,13.87 48.79,16.99 19.43,2.82 38.1,2.34 56,-1.38 17.9,-3.75 28.02,-13.7 30.38,-29.9 1.25,-8.64 -0.94,-16.4 -6.56,-23.28 -5.61,-6.88 -12.74,-10.93 -21.37,-12.18 -4.86,-0.7 -11.11,-0.38 -18.75,1 -7.64,1.37 -12.58,2.17 -14.82,2.4 -2.23,0.22 -9.14,1.28 -20.71,3.19 -11.57,1.9 -23.02,2.03 -34.36,0.38 -7.56,-1.09 -13.15,-2.45 -16.77,-4.07 l 1.56,-27.88 c 3.33,-41.96 4.96,-78.91 4.92,-110.89 -0.05,-31.95 -3.6,-57.84 -10.65,-77.59 -9.82,-27.32 -26.75,-51.26 -50.76,-71.83 -24.01,-20.56 -50.33,-32.93 -78.94,-37.07 -24.29,-3.53 -45.52,-1.51 -63.71,6.04 -18.17,7.58 -28.87,22.42 -32.08,44.53 -1.57,10.81 -0.54,20.87 3.07,30.22 3.59,9.34 10.26,14.71 19.98,16.11 24.28,3.53 42.34,7.26 54.18,11.17 11.82,3.92 23.71,12.25 35.64,25.01 20.08,21.09 32.35,47.66 36.79,79.74 4.45,32.05 6.3,75.3 5.57,129.75 -0.48,45.11 0.29,82.58 2.31,112.35 2.02,29.77 7.8,60.23 17.34,91.39 9.54,31.13 25.15,59.28 46.86,84.48 10.76,13.13 23.08,24.15 36.95,33.06 13.86,8.88 28.61,14.48 44.27,16.74 19.97,2.9 38.31,-0.09 55.04,-8.95"
         style="fill:#ffffff;fill-opacity:1;fill-rule:nonzero;stroke:none"
         id="path70" />
      <path
         d="m 3861.69,1903.37 c 10.85,-8.35 17.26,-19.27 19.22,-32.76 1.95,-13.49 -1.07,-25.92 -9.06,-37.27 -8.01,-11.36 -18.75,-18.01 -32.24,-19.97 -13.5,-1.95 -25.69,1.38 -36.58,10 -10.9,8.6 -17.32,19.66 -19.27,33.15 -1.96,13.49 1.07,25.78 9.12,36.88 8.02,11.09 18.79,17.6 32.29,19.55 13.49,1.96 25.66,-1.22 36.52,-9.58 z m -159.2,-472.77 c -3.91,26.99 -2.69,60.49 3.61,100.55 3.43,21.98 9.79,50.3 19.09,85.01 9.3,34.68 21.21,66.59 35.73,95.7 14.51,29.1 30.13,44.88 46.87,47.3 16.72,2.43 26.98,-9.32 30.74,-35.22 2.66,-18.36 3.02,-37.05 1.1,-56.05 -1.93,-19.02 -5.6,-44.08 -11.01,-75.18 -5.28,-28.32 -8.77,-51.69 -10.5,-70.12 -1.74,-18.44 -1.35,-36.29 1.15,-53.57 1.02,-7.01 4.01,-16.23 8.97,-27.63 5.12,-12.48 8.15,-21.97 9.08,-28.44 1.96,-13.5 -3.05,-24.55 -15.03,-33.19 -11.97,-8.63 -25.52,-14.02 -40.63,-16.22 -23.21,-3.36 -41.46,0.87 -54.75,12.73 -13.29,11.84 -21.7,29.93 -25.22,54.22 l 0.8,0.11"
         style="fill:#ffffff;fill-opacity:1;fill-rule:nonzero;stroke:none"
         id="path72" />
      <path
         d="m 4040.99,2032.28 c 11.62,-7.96 18.57,-19.75 20.84,-35.41 3.29,-22.66 1.25,-47.63 -6.1,-74.87 -7.35,-27.25 -19.62,-63.34 -36.79,-108.25 -21.64,-56.05 -37.64,-104.39 -48,-145.01 -10.37,-40.64 -12.62,-81.18 -6.75,-121.67 2.74,-18.9 7.13,-35.89 13.18,-50.99 6.04,-15.11 15.65,-35.76 28.82,-61.96 0.16,-1.08 0.81,-2.65 1.92,-4.68 1.13,-2.04 1.8,-3.86 2.04,-5.5 0.94,-6.47 -5.26,-13.15 -18.59,-20.03 -13.33,-6.91 -24.58,-11.02 -33.75,-12.35 -25.91,-3.76 -46.27,2.67 -61.07,19.25 -14.81,16.58 -24.17,38.38 -28.08,65.37 l -1.88,12.96 c -2.55,36.53 -0.47,75.42 6.24,116.63 6.7,41.2 17.32,91.49 31.84,150.93 12.01,50.23 21.29,92.63 27.85,127.21 6.57,34.56 10.5,68.19 11.82,100.91 0.67,14.43 6.31,26.82 16.93,37.18 10.62,10.34 23.49,16.63 38.61,18.82 15.64,2.27 29.29,-0.59 40.92,-8.54"
         style="fill:#ffffff;fill-opacity:1;fill-rule:nonzero;stroke:none"
         id="path74" />
      <path
         d="m 4434.58,1840.53 c 8.19,-9.02 13.35,-20.78 15.46,-35.36 3.92,-27.01 0.47,-62.22 -10.31,-105.66 -17.37,-70.3 -22.71,-128.4 -16.06,-174.27 0.55,-3.79 1.88,-9.24 4.03,-16.36 2.12,-7.12 3.43,-12.32 3.9,-15.55 1.57,-10.81 -0.92,-19.29 -7.46,-25.47 -6.55,-6.19 -15.49,-10.11 -26.82,-11.75 -17.28,-2.51 -32.62,1.6 -46.02,12.36 -13.41,10.72 -21.35,24.7 -23.86,41.99 -1.8,12.42 -1.5,25.54 0.9,39.4 2.4,13.85 6.04,30.5 10.95,49.94 0.22,2.23 1.54,8.34 3.95,18.34 2.4,9.98 3.3,17.15 2.67,21.47 l -0.35,2.44 -3.48,1.14 c -4.85,-0.7 -9.95,-5.45 -15.29,-14.21 -5.34,-8.76 -12.75,-22.38 -22.19,-40.82 -15.44,-30.35 -29.35,-54.14 -41.73,-71.35 -12.38,-17.22 -26.14,-26.94 -41.24,-29.13 -12.43,-1.8 -22.22,1.18 -29.41,8.96 -7.2,7.77 -11.72,18.14 -13.6,31.09 -1.96,13.5 -2.96,27.95 -2.99,43.38 -0.03,15.42 -0.04,25.07 -0.05,28.93 0.78,28.77 -0.23,52.87 -3.05,72.3 -1.8,12.41 -4.31,18.39 -7.55,17.92 -11.34,-1.64 -18.55,-18.4 -21.65,-50.26 -3.11,-31.86 -3.72,-66.54 -1.87,-104 1.85,-37.5 3.88,-63.8 6.07,-78.9 1.88,-12.96 -0.46,-23.5 -6.99,-31.6 -6.55,-8.13 -16.29,-13.11 -29.24,-14.98 -24.84,-3.61 -44.3,3.36 -58.41,20.87 -14.11,17.52 -23.12,39.76 -27.04,66.75 -5.48,37.78 -2.2,81.65 9.84,131.63 12.04,49.97 30.59,96.88 55.65,140.75 25.06,43.84 53.48,75.81 85.3,95.86 12.1,7.8 24.07,12.58 35.95,14.3 15.11,2.19 27.27,-0.88 36.46,-9.19 9.19,-8.31 14.93,-20.29 17.2,-35.93 2.04,-14.05 2.03,-29.19 -0.02,-45.47 -2.05,-16.29 -5.37,-35.23 -9.95,-56.84 -4.42,-22.68 -7.45,-39.79 -9.08,-51.32 -1.63,-11.54 -1.67,-22.71 -0.11,-33.49 1.25,-8.65 5.12,-12.49 11.59,-11.56 7.56,1.1 15.04,8.38 22.46,21.86 7.41,13.48 16.34,33.64 26.77,60.52 16.19,40.36 31.06,71.73 44.64,94.09 13.56,22.35 29.79,34.9 48.69,37.65 14.02,2.03 25.14,-1.47 33.34,-10.47"
         style="fill:#ffffff;fill-opacity:1;fill-rule:nonzero;stroke:none"
         id="path76" />
      <path
         d="m 4979.01,1988.08 c 16.7,-8.88 30.43,-21.76 41.15,-38.67 10.72,-16.92 17.49,-35.08 20.3,-54.51 1.96,-13.49 1.04,-28.09 -2.75,-43.79 -3.78,-15.71 -10.35,-29.33 -19.69,-40.9 -9.35,-11.55 -21.03,-18.33 -35.07,-20.36 -12.95,-1.88 -23.66,-0.27 -32.11,4.86 -8.47,5.08 -13.58,13.85 -15.39,26.28 -0.54,3.76 -0.77,9.1 -0.67,16.01 0.1,6.92 -0.08,11.98 -0.55,15.23 -1.17,8.09 -4.06,16.63 -8.67,25.6 -4.61,8.96 -10.15,12.99 -16.63,12.05 -28.07,-4.07 -45.52,-27.26 -52.33,-69.58 -6.81,-42.32 -9.4,-86.24 -7.76,-131.74 10.93,8.2 27.19,13.87 48.79,17 19.43,2.82 38.1,2.34 55.99,-1.39 17.91,-3.74 28.04,-13.7 30.38,-29.9 1.26,-8.65 -0.92,-16.4 -6.55,-23.27 -5.61,-6.88 -12.74,-10.94 -21.37,-12.19 -4.86,-0.71 -11.11,-0.37 -18.75,1 -7.63,1.37 -12.58,2.16 -14.82,2.41 -2.23,0.2 -9.14,1.27 -20.71,3.19 -11.58,1.89 -23.03,2.02 -34.36,0.38 -7.56,-1.09 -13.15,-2.45 -16.77,-4.07 l 1.56,-27.88 c 3.33,-41.98 4.97,-78.93 4.92,-110.9 -0.05,-31.95 -3.6,-57.83 -10.65,-77.59 -9.82,-27.32 -26.74,-51.26 -50.76,-71.84 -24.01,-20.54 -50.33,-32.92 -78.94,-37.07 -24.29,-3.51 -45.52,-1.5 -63.7,6.06 -18.18,7.57 -28.88,22.41 -32.09,44.53 -1.57,10.8 -0.54,20.87 3.06,30.21 3.61,9.33 10.27,14.7 19.99,16.12 24.28,3.51 42.35,7.25 54.18,11.15 11.83,3.93 23.71,12.27 35.64,25.02 20.08,21.09 32.35,47.67 36.79,79.74 4.45,32.06 6.3,75.31 5.58,129.75 -0.49,45.12 0.28,82.57 2.3,112.35 2.02,29.76 7.8,60.24 17.34,91.38 9.54,31.15 25.15,59.3 46.86,84.5 10.76,13.13 23.08,24.14 36.95,33.05 13.86,8.89 28.62,14.47 44.27,16.75 19.97,2.89 38.32,-0.1 55.04,-8.97"
         style="fill:#ffffff;fill-opacity:1;fill-rule:nonzero;stroke:none"
         id="path78" />
      <path
         d="m 5136.63,1824.53 c 23.2,3.37 43.42,13.18 60.63,29.45 17.19,16.26 24.19,35.46 20.99,57.61 -1.88,12.96 -8.21,18.65 -19,17.08 -17.29,-2.5 -32.1,-15.26 -44.48,-38.28 -12.36,-23.01 -19.76,-45.16 -22.18,-66.45 z m 188.49,-59.88 c 8.11,-8.48 12.99,-18.38 14.64,-29.71 3.91,-27 -0.09,-51.67 -12,-74.06 -11.92,-22.4 -29.24,-40.62 -52.01,-54.66 -22.76,-14.06 -47.37,-22.99 -73.82,-26.83 -43.71,-6.33 -79.79,2.06 -108.22,25.24 -28.44,23.14 -45.86,56.85 -52.27,101.12 -4.94,34 -0.79,71.8 12.49,113.4 13.25,41.6 33.49,77.72 60.74,108.42 27.23,30.67 58.39,48.56 93.48,53.65 25.91,3.75 47.46,-1.39 64.65,-15.44 17.19,-14.03 27.72,-34.29 31.55,-60.72 3.13,-21.59 1.73,-42.46 -4.15,-62.6 -5.9,-20.16 -16.25,-37.22 -31.02,-51.2 -14.79,-14.01 -32.98,-22.56 -54.56,-25.69 -16.19,-2.35 -32.08,-1.08 -47.68,3.83 -15.58,4.9 -27.59,13.63 -36.02,26.19 l 1.41,-15.5 c 3.44,-23.75 11.39,-43.4 23.84,-58.95 12.45,-15.56 29.73,-21.74 51.88,-18.52 14.02,2.03 25.17,6.81 33.46,14.36 8.27,7.53 17.22,18.06 26.83,31.57 5.92,8.57 10.92,14.95 15,19.12 4.07,4.18 8.54,6.63 13.41,7.33 10.79,1.56 20.24,-1.9 28.37,-10.35"
         style="fill:#ffffff;fill-opacity:1;fill-rule:nonzero;stroke:none"
         id="path80" />
      <path
         d="m 5548.74,1878.5 c -14.51,1.2 -24.99,1.32 -31.46,0.39 -16.2,-2.35 -23.63,-8.12 -22.3,-17.29 1.02,-7.02 5.67,-13.51 13.97,-19.45 8.32,-5.98 21.72,-13.95 40.27,-23.93 27.4,-14.22 48.95,-27.9 64.64,-41.05 15.67,-13.17 24.94,-29.46 27.75,-48.88 3.14,-21.6 -2.22,-40.83 -16.01,-57.71 -13.82,-16.88 -31.84,-30.4 -54.07,-40.49 -22.23,-10.11 -44.15,-16.74 -65.73,-19.87 -18.35,-2.66 -38.43,-1.98 -60.22,2.02 -21.8,4 -40.96,11.68 -57.49,23.07 -16.54,11.38 -26.17,26.51 -28.91,45.4 -2.03,14.04 0.53,27.78 7.67,41.21 7.14,13.44 17.46,21.14 30.95,23.1 5.94,0.86 12.59,-0.39 19.97,-3.72 7.38,-3.36 16.81,-8.61 28.32,-15.74 15.76,-9.85 29.48,-17.09 41.18,-21.72 11.68,-4.65 23.74,-6.07 36.16,-4.26 8.63,1.25 15.78,5.17 21.44,11.78 5.66,6.61 7.89,13.96 6.72,22.06 -1.81,12.41 -9.08,23.61 -21.81,33.62 -12.76,10 -31.72,21.98 -56.89,35.98 -30.05,17.14 -53.19,32.37 -69.45,45.73 -16.28,13.35 -25.76,29.46 -28.51,48.36 -2.81,19.43 1.31,36.56 12.38,51.39 11.08,14.83 25.9,26.63 44.48,35.38 18.57,8.76 37.02,14.46 55.38,17.12 30.22,4.38 59.54,2.7 87.94,-5.02 28.4,-7.73 44.56,-25.1 48.46,-52.08 2.44,-16.73 -0.28,-31.32 -8.12,-43.74 -7.84,-12.45 -20.13,-19.87 -36.86,-22.29 -6.47,-0.95 -16.42,-0.74 -29.85,0.63"
         style="fill:#ffffff;fill-opacity:1;fill-rule:nonzero;stroke:none"
         id="path82" />
      <path
         d="m 5932.44,2074.25 c 7.02,-4.78 11.33,-12.56 12.89,-23.35 2.59,-17.82 -5.21,-32.45 -23.4,-43.9 -18.17,-11.45 -37.25,-18.63 -57.21,-21.52 -30.24,-4.39 -55.85,-0.65 -76.85,11.17 -8.6,-54.7 -9.88,-102.83 -3.86,-144.39 8.14,-56.14 31.36,-81.42 69.68,-75.86 7.56,1.09 12.91,0.21 16.09,-2.64 3.17,-2.84 5.35,-8.31 6.52,-16.42 2.42,-16.74 0.11,-33.04 -6.95,-48.94 -7.08,-15.91 -17.56,-29.14 -31.45,-39.69 -13.91,-10.55 -29.23,-17.06 -45.95,-19.48 -31.85,-4.62 -57.87,2.9 -78.08,22.57 -20.22,19.66 -32.67,45.69 -37.37,78.07 -8.29,57.21 -2.76,140.68 16.61,250.41 2.58,16.35 12.5,57.19 29.76,122.52 17.26,65.33 28.26,102.47 33.04,111.43 6.21,10.26 13.6,19.2 22.15,26.77 8.53,7.57 17.67,12.07 27.39,13.48 7.56,1.1 14.67,0.47 21.35,-1.86 6.67,-2.35 10.52,-7.03 11.54,-14.05 -3.13,-20.28 -8.87,-52.81 -17.27,-97.55 -8.38,-44.77 -15.1,-80.18 -20.13,-106.26 6.71,-0.68 13.31,-0.54 19.78,0.4 7,1.01 21.04,4.98 42.09,11.88 16.72,6.28 30.75,10.24 42.08,11.88 11.35,1.66 20.52,0.09 27.55,-4.67"
         style="fill:#ffffff;fill-opacity:1;fill-rule:nonzero;stroke:none"
         id="path84" />
      <path
         d="m 6076.81,2224.54 c 10.85,-8.35 17.26,-19.27 19.22,-32.75 1.95,-13.5 -1.08,-25.93 -9.07,-37.28 -8.01,-11.36 -18.75,-18.02 -32.23,-19.97 -13.5,-1.95 -25.7,1.38 -36.59,9.99 -10.89,8.61 -17.31,19.67 -19.27,33.16 -1.96,13.49 1.08,25.79 9.13,36.87 8.02,11.1 18.79,17.61 32.28,19.56 13.49,1.96 25.67,-1.22 36.53,-9.58 z m -159.19,-472.77 c -3.92,26.99 -2.71,60.49 3.6,100.55 3.43,21.99 9.79,50.31 19.09,85.01 9.29,34.68 21.2,66.59 35.72,95.71 14.52,29.09 30.14,44.87 46.87,47.29 16.73,2.43 26.98,-9.32 30.73,-35.21 2.67,-18.37 3.03,-37.05 1.11,-56.06 -1.93,-19.02 -5.59,-44.09 -11.01,-75.17 -5.27,-28.32 -8.77,-51.69 -10.5,-70.13 -1.74,-18.44 -1.35,-36.29 1.15,-53.57 1.02,-7.01 4.02,-16.23 8.97,-27.63 5.13,-12.48 8.14,-21.97 9.09,-28.44 1.95,-13.5 -3.06,-24.55 -15.03,-33.18 -11.97,-8.64 -25.53,-14.04 -40.64,-16.22 -23.21,-3.36 -41.45,0.86 -54.75,12.72 -13.29,11.85 -21.69,29.93 -25.21,54.21 l 0.81,0.12"
         style="fill:#ffffff;fill-opacity:1;fill-rule:nonzero;stroke:none"
         id="path86" />
      <path
         d="m 6348.17,2111.79 c 12.6,-14.7 20.43,-32.58 23.49,-53.64 5.48,-37.78 1.91,-77.84 -10.68,-120.17 -12.61,-42.33 -31.7,-81.62 -57.32,-117.83 -25.61,-36.23 -54.24,-64.92 -85.89,-86.03 -21.03,-14.63 -41.8,-23.42 -62.31,-26.4 -14.57,-2.11 -26.52,0.56 -35.88,8.02 -9.35,7.46 -15.08,18.48 -17.2,33.06 -2.18,15.11 0.51,36.44 8.09,64 13.78,49.38 17.97,92.7 12.57,129.95 -2.35,16.18 -5.66,29.48 -9.92,39.89 -2.02,6.31 -7.32,16.3 -15.91,29.93 -1.4,2 -3.97,6.45 -7.73,13.35 -3.76,6.89 -5.86,11.97 -6.33,15.2 -1.32,9.17 3.67,17.48 14.98,24.9 11.33,7.43 22.11,11.89 32.38,13.37 23.2,3.37 42.21,-3.25 57.02,-19.83 14.8,-16.59 23.96,-37.03 27.49,-61.32 3.44,-23.75 3.33,-46.77 -0.32,-69.06 -3.67,-22.32 -9.89,-48.7 -18.69,-79.18 -6.06,-19.06 -10.84,-37.41 -14.35,-54.99 l 3.23,0.47 c 12.41,1.8 25.71,10.89 39.87,27.27 16.54,18.94 28.15,41.42 34.85,67.47 6.69,26.04 8.21,51.74 4.53,77.12 -1.41,9.72 -5.15,24.06 -11.2,43.01 -1.09,3.69 -2.82,9.93 -5.19,18.68 -2.38,8.74 -4.06,16.63 -5.07,23.64 -2.67,18.35 1.52,35.08 12.55,50.19 11.04,15.11 25.74,23.97 44.09,26.63 19.96,2.9 36.25,-3 48.85,-17.7"
         style="fill:#ffffff;fill-opacity:1;fill-rule:nonzero;stroke:none"
         id="path88" />
      <path
         d="m 6519.63,1918.41 c 8.31,-9.83 18.66,-13.82 31.08,-12.01 11.88,1.71 22.82,9.91 32.82,24.59 9.98,14.67 17.47,31.46 22.45,50.36 4.97,18.9 6.64,34.04 5,45.38 -1.58,10.79 -6.08,19.09 -13.53,24.89 -7.46,5.8 -16.85,7.9 -28.19,6.26 -14.05,-2.04 -26.29,-8.78 -36.75,-20.21 -10.47,-11.44 -18.27,-25.11 -23.4,-41.01 -5.14,-15.9 -6.72,-30.6 -4.76,-44.09 1.87,-12.95 6.96,-24.34 15.28,-34.16 z m 189.87,184.18 c -2.36,-12.2 -6.27,-28.05 -11.7,-47.57 -7.58,-27.55 -12.99,-51.08 -16.22,-70.56 -3.25,-19.47 -3.48,-38.66 -0.75,-57.56 1.57,-10.8 4.05,-20.36 7.47,-28.67 3.4,-8.34 7.82,-17.88 13.25,-28.67 7.35,-12.72 11.57,-22.85 12.67,-30.39 1.95,-13.5 -0.28,-25.67 -6.69,-36.52 -6.43,-10.85 -16.1,-17.21 -29.06,-19.1 -29.14,-4.22 -52.02,16.71 -68.63,62.81 -7.67,-19.3 -22.12,-35.6 -43.34,-48.87 -21.21,-13.28 -42.9,-21.51 -65.02,-24.72 -20.52,-2.98 -39.38,0.76 -56.6,11.22 -17.21,10.44 -31.3,24.81 -42.19,43.07 -10.92,18.26 -17.83,37.35 -20.73,57.33 -5.15,35.63 -1.58,71.69 10.76,108.21 12.35,36.5 32.06,67.74 59.16,93.72 27.09,25.96 58.45,41.53 94.08,46.7 31.3,4.54 58.09,-1.49 80.34,-18.11 1.97,12.95 6.37,24.49 13.17,34.56 6.81,10.09 16.14,15.99 28.02,17.72 10.79,1.56 20.36,-0.77 28.71,-7.01 8.33,-6.24 13.29,-14.75 14.85,-25.54 1.33,-9.18 0.82,-19.87 -1.55,-32.05"
         style="fill:#ffffff;fill-opacity:1;fill-rule:nonzero;stroke:none"
         id="path90" />
      <path
         d="m 6911.89,2448.54 c 11.63,-7.96 18.58,-19.76 20.84,-35.42 3.3,-22.66 1.25,-47.62 -6.09,-74.86 -7.35,-27.25 -19.62,-63.34 -36.8,-108.26 -21.63,-56.04 -37.63,-104.38 -47.99,-145 -10.38,-40.65 -12.62,-81.19 -6.75,-121.68 2.74,-18.9 7.13,-35.89 13.18,-50.99 6.04,-15.11 15.65,-35.76 28.82,-61.95 0.16,-1.08 0.8,-2.65 1.92,-4.68 1.13,-2.04 1.8,-3.87 2.03,-5.5 0.95,-6.47 -5.25,-13.16 -18.58,-20.04 -13.34,-6.9 -24.59,-11.01 -33.75,-12.35 -25.92,-3.75 -46.27,2.67 -61.07,19.26 -14.81,16.58 -24.17,38.37 -28.08,65.36 l -1.88,12.96 c -2.54,36.53 -0.47,75.43 6.24,116.64 6.69,41.19 17.31,91.49 31.84,150.92 12,50.24 21.29,92.64 27.85,127.22 6.57,34.56 10.5,68.19 11.82,100.9 0.66,14.43 6.31,26.82 16.93,37.19 10.62,10.34 23.49,16.62 38.61,18.82 15.64,2.26 29.28,-0.6 40.91,-8.54"
         style="fill:#ffffff;fill-opacity:1;fill-rule:nonzero;stroke:none"
         id="path92" />
      <path
         d="m 9633,6703.68 c -51.72,-17.45 -102.89,-36.52 -153.42,-57.18 -23.29,-9.52 -48.94,-21.96 -56.85,-45.85 -5.11,-15.42 -1.48,-32.24 2.67,-47.95 11.49,-43.52 26.68,-86.07 45.36,-127.02 9.72,-21.31 20.64,-43.38 19.42,-66.76 -1.36,-25.94 -17.61,-51.54 -10.05,-76.39 8.45,-27.77 41.37,-38.72 69.92,-43.96 41.57,-7.64 83.75,-11.92 126,-12.8 46.2,-0.96 93.73,2.46 135.64,21.9 41.92,19.45 77.5,57.6 83.18,103.45 5.67,45.86 -26.03,96.34 -71.9,101.97 -9.57,1.18 -20.66,1.11 -26.83,8.53 -55.8,67.12 7.13,302.51 -163.14,242.06"
         style="fill:#c69c6d;fill-opacity:1;fill-rule:nonzero;stroke:none"
         id="path94" />
      <path
         d="m 9990.62,5735.14 c 101.58,-79.91 210.08,-179.07 212.78,-308.31 2.5,-126.38 -96.6,-227.68 -163.9,-334.69 -8.8,-14.07 -17.5,-30.56 -13,-46.56 3.8,-13.51 16,-22.82 22.9,-35.05 14.2,-25.28 2.2,-58.8 -19.4,-78.07 -21.7,-19.28 -50.64,-27.73 -78.54,-35.61 -43.89,-12.4 -90.11,-24.88 -134.48,-14.33 -64.83,15.41 -111.74,76.77 -177.04,90.07 -57.71,11.75 -120.47,-16.31 -175.2,5.45 -53.74,21.36 -78.84,81.77 -98.39,136.21 -5.25,14.62 -10.58,30.14 -7.58,45.39 7.36,37.45 54.61,47.27 89.85,61.92 59.3,24.66 101.54,85.85 103.57,150.04 2.89,91.81 -68.61,178.78 -48.11,268.32 27.42,119.7 139.23,85.74 222.63,119.85 112.59,46.05 158.15,58.55 263.91,-24.63"
         style="fill:#c69c6d;fill-opacity:1;fill-rule:nonzero;stroke:none"
         id="path96" />
      <path
         d="m 8763.04,6524.94 c -112.95,-23.87 -225.91,-47.73 -338.86,-71.6 -27.59,-5.83 -55.93,-11.97 -79.43,-27.57 -30.14,-20.03 -48.53,-52.98 -68.94,-82.85 -59.29,-86.78 -144.39,-155.67 -241.6,-195.6 -27.44,-11.27 -59.08,-23.4 -69.41,-51.2 -5.02,-13.53 -3.85,-28.48 -2.36,-42.84 13.64,-131.53 48.51,-260.83 102.85,-381.38 7.79,-17.29 16.37,-34.93 30.67,-47.39 20.13,-17.54 48.27,-22.08 74.89,-24.06 144.9,-10.79 306.15,28.95 425.35,-54.13 52.14,-36.34 91.11,-93.97 151.65,-113.32 96.97,-31 191.05,49.19 261.49,122.7 26.41,27.56 53.9,57.09 62.15,94.35 14.75,66.65 -36.52,131.57 -34.27,199.79 1.33,40.38 21.39,78.25 23.59,118.58 5.79,105.96 -99.46,152.73 -150.74,229.54 -64.35,96.38 -93.94,223.22 -147.03,326.98"
         style="fill:#c69c6d;fill-opacity:1;fill-rule:nonzero;stroke:none"
         id="path98" />
      <path
         d="m 8807.09,6071.49 c -2.36,5.43 -6.87,9.72 -11.22,13.57 -4,3.53 -8.85,6.53 -13.88,8.33 -5.34,1.91 -10.94,2.46 -16.01,-0.48 -3.07,-1.77 -2.73,-6.11 0.94,-6.88 1.31,-0.28 3.29,-1 4.75,-1.74 0.89,-0.45 1.79,-0.88 2.69,-1.29 0.07,-0.03 0.1,-0.05 0.15,-0.07 0,0 0,0 0.01,-0.01 0.42,-0.28 0.86,-0.54 1.27,-0.82 0.86,-0.6 1.68,-1.24 2.48,-1.91 0.34,-0.29 0.68,-0.58 1,-0.88 0.14,-0.12 0.27,-0.23 0.39,-0.33 0.67,-0.6 1.31,-1.27 1.92,-1.97 -0.85,-0.32 -1.73,-0.68 -2.66,-1.09 -17.26,-7.57 -47.99,-29.41 -50.86,-31.24 -1.6,-1.01 -3.22,-2.01 -4.84,-2.99 -0.32,-0.18 -0.75,-0.44 -0.86,-0.5 -0.98,-0.56 -1.95,-1.12 -2.94,-1.67 -3.74,-2.1 -7.54,-4.11 -11.38,-6.04 -7.72,-3.87 -15.62,-7.39 -23.63,-10.62 -32.68,-13.19 -62.85,-20.44 -97.21,-27.85 -35.72,-7.71 -71.57,-15.14 -107.61,-21.21 -36.75,-6.2 -73.73,-10.13 -110.9,-12.65 -20.12,-1.36 -40.33,-0.81 -60.43,0.77 -9.98,0.79 -19.94,1.95 -29.83,3.54 -10.35,1.67 -20.67,3.88 -31.1,4.91 -4.57,0.45 -5.75,-5.36 -2,-7.4 0.13,-0.07 0.26,-0.12 0.38,-0.19 0.23,-0.82 0.72,-1.6 1.55,-2.22 49.11,-36.41 52.27,-103.75 91.63,-147.58 19.82,-22.07 46.43,-37.93 73.44,-49.64 25.1,-10.88 52,-17.97 79.16,-21.17 54.49,-6.42 111.15,2.51 160.44,26.88 50.35,24.91 96.04,66.37 111.21,122.04 7.46,27.38 8.36,55.7 9.54,83.89 1.11,26.51 2.27,53.89 11.13,79.16 1.13,3.22 2.56,6.31 3.73,9.5 0.51,1.4 0.89,2.87 1.24,4.35 0.12,-0.17 0.25,-0.32 0.38,-0.45 0.22,-0.42 0.44,-0.85 0.64,-1.28 0.38,-0.85 0.71,-1.71 1.06,-2.57 0.05,-0.34 0.1,-0.68 0.15,-1.02 0,-0.04 0,-0.08 0,-0.11 0,-0.34 0.01,-0.72 0.01,-1.21 0.04,-0.41 0.12,-0.81 0.21,-1.21 0.21,-0.74 0.41,-1.48 0.61,-2.22 0.16,-0.26 0.26,-0.42 0.39,-0.64 -0.09,0.15 -0.08,0.1 0.06,-0.2 0.16,-0.45 0.17,-0.41 0.03,0.05 0,-0.01 0.01,-0.02 0.01,-0.02 1.06,-3.01 3.75,-5.32 7.21,-4.77 4.74,0.76 8.56,4.16 9.28,9.04 0.48,3.29 -0.43,7.12 -1.73,10.11"
         style="fill:#0c0a3a;fill-opacity:1;fill-rule:nonzero;stroke:none"
         id="path100" />
      <path
         d="m 8807.09,6071.49 c -2.36,5.43 -6.87,9.72 -11.22,13.57 -4,3.53 -8.85,6.53 -13.88,8.33 -5.34,1.91 -10.94,2.46 -16.01,-0.48 -3.07,-1.77 -2.73,-6.11 0.94,-6.88 1.31,-0.28 3.29,-1 4.75,-1.74 0.89,-0.45 1.79,-0.88 2.69,-1.29 0.07,-0.03 0.1,-0.05 0.15,-0.07 0,0 0,0 0.01,-0.01 0.42,-0.28 0.86,-0.54 1.27,-0.82 0.86,-0.6 1.68,-1.24 2.48,-1.91 0.34,-0.29 0.68,-0.58 1,-0.88 0.14,-0.12 0.27,-0.23 0.39,-0.33 0.67,-0.6 1.31,-1.27 1.92,-1.97 -0.85,-0.32 -1.73,-0.68 -2.66,-1.09 -17.26,-7.57 -47.99,-29.41 -50.86,-31.24 -1.6,-1.01 -3.22,-2.01 -4.84,-2.99 -0.32,-0.18 -0.75,-0.44 -0.86,-0.5 -0.98,-0.56 -1.95,-1.12 -2.94,-1.67 -3.74,-2.1 -7.54,-4.11 -11.38,-6.04 -7.72,-3.87 -15.62,-7.39 -23.63,-10.62 -32.68,-13.19 -62.85,-20.44 -97.21,-27.85 -35.72,-7.71 -71.57,-15.14 -107.61,-21.21 -36.75,-6.2 -73.73,-10.13 -110.9,-12.65 -20.12,-1.36 -40.33,-0.81 -60.43,0.77 -9.98,0.79 -19.94,1.95 -29.83,3.54 -10.35,1.67 -20.67,3.88 -31.1,4.91 -4.57,0.45 -5.75,-5.36 -2,-7.4 0.13,-0.07 0.26,-0.12 0.38,-0.19 0.23,-0.82 0.72,-1.6 1.55,-2.22 49.11,-36.41 52.27,-103.75 91.63,-147.58 19.82,-22.07 46.43,-37.93 73.44,-49.64 25.1,-10.88 52,-17.97 79.16,-21.17 54.49,-6.42 111.15,2.51 160.44,26.88 50.35,24.91 96.04,66.37 111.21,122.04 7.46,27.38 8.36,55.7 9.54,83.89 1.11,26.51 2.27,53.89 11.13,79.16 1.13,3.22 2.56,6.31 3.73,9.5 0.51,1.4 0.89,2.87 1.24,4.35 0.12,-0.17 0.25,-0.32 0.38,-0.45 0.22,-0.42 0.44,-0.85 0.64,-1.28 0.38,-0.85 0.71,-1.71 1.06,-2.57 0.05,-0.34 0.1,-0.68 0.15,-1.02 0,-0.04 0,-0.08 0,-0.11 0,-0.34 0.01,-0.72 0.01,-1.21 0.04,-0.41 0.12,-0.81 0.21,-1.21 0.21,-0.74 0.41,-1.48 0.61,-2.22 0.16,-0.26 0.26,-0.42 0.39,-0.64 -0.09,0.15 -0.08,0.1 0.06,-0.2 0.16,-0.45 0.17,-0.41 0.03,0.05 0,-0.01 0.01,-0.02 0.01,-0.02 1.06,-3.01 3.75,-5.32 7.21,-4.77 4.74,0.76 8.56,4.16 9.28,9.04 0.48,3.29 -0.43,7.12 -1.73,10.11 z"
         style="fill:none;stroke:#0c0a3a;stroke-width:13.3165;stroke-linecap:butt;stroke-linejoin:miter;stroke-miterlimit:10;stroke-dasharray:none;stroke-opacity:1"
         id="path102" />
      <path
         d="m 8425.89,6176.97 c -29.3,36.81 -81.63,22.72 -95.52,-0.08 -14.37,-23.56 -8.65,-76.84 43,-81.65 51.65,-4.81 73.3,55.62 52.52,81.73"
         style="fill:#0c0a3a;fill-opacity:1;fill-rule:nonzero;stroke:none"
         id="path104" />
      <path
         d="m 8668.06,6258.1 c -37.13,46.64 -103.44,28.78 -121.05,-0.1 -18.2,-29.86 -10.96,-97.38 54.49,-103.47 65.46,-6.09 92.89,70.49 66.56,103.57"
         style="fill:#0c0a3a;fill-opacity:1;fill-rule:nonzero;stroke:none"
         id="path106" />
    </g>
  </g>
</svg>
