<?xml version="1.0" encoding="utf-8"?>
<svg version="1.1" id="logo" xmlns="http://www.w3.org/2000/svg" xmlns:xlink="http://www.w3.org/1999/xlink" x="0px" y="0px"
	 viewBox="0 0 175.41 77.946" style="enable-background:new 0 0 175.41 77.946;" xml:space="preserve">
<style type="text/css">
	.st0{fill:#fff;}
	.st1{fill:#d28219;}
	.st2{fill:#fff;}
</style>
<path id="name" class="st0" d="M2.442,66.02c-0.729,0-1.303-0.213-1.754-0.651C0.251,64.947,0,64.265,0,63.499
	c0-1.268,0.801-2.549,2.591-2.549c0.491,0,0.934,0.113,1.156,0.224l0.078,0.039l-0.184,0.449L3.55,61.618
	c-0.275-0.134-0.587-0.196-0.98-0.196c-1.251,0-2.028,0.791-2.028,2.063c0,1.292,0.731,2.063,1.957,2.063
	c0.494,0,0.762-0.068,0.906-0.134v-1.537H2.299v-0.464h1.635v2.32l-0.058,0.024C3.684,65.836,3.159,66.02,2.442,66.02 M8.904,65.833
	c-0.1-0.193-0.199-0.595-0.347-1.268c-0.105-0.491-0.308-0.826-0.606-0.999c0.522-0.246,0.807-0.687,0.807-1.259
	c0-0.356-0.135-0.7-0.362-0.918c-0.297-0.29-0.728-0.425-1.356-0.425c-0.36,0-0.765,0.039-1.056,0.102L5.91,61.082v4.888h0.528
	v-2.193h0.647c0.57,0.026,0.848,0.294,0.991,0.955c0.155,0.731,0.24,1.053,0.315,1.189l0.026,0.049h0.557L8.904,65.833z
	 M6.438,61.475c0.107-0.019,0.308-0.046,0.594-0.046c0.547,0,1.198,0.162,1.198,0.935c0,0.576-0.442,0.949-1.127,0.949H6.438V61.475
	z M13.541,65.498h-2.136v-1.905h1.909v-0.472h-1.909v-1.65h2.022V61h-2.55v4.97h2.664V65.498z M16.997,61h-0.459l-1.799,4.97h0.548
	l0.589-1.675h1.762l0.603,1.675h0.547L16.997,61z M16.594,62.336c0.066-0.204,0.119-0.369,0.165-0.528
	c0.045,0.162,0.097,0.336,0.169,0.545l0.536,1.471H16.05L16.594,62.336z M21.509,61.471h1.561V61h-3.65v0.471h1.561v4.499h0.528
	V61.471z M27.242,65.498h-2.136v-1.905h1.909v-0.472h-1.909v-1.65h2.022V61h-2.55v4.97h2.664V65.498z M32.191,65.833
	c-0.1-0.193-0.199-0.594-0.346-1.268c-0.105-0.491-0.309-0.826-0.607-0.999c0.523-0.246,0.807-0.687,0.807-1.259
	c0-0.356-0.135-0.7-0.362-0.918c-0.297-0.29-0.728-0.425-1.356-0.425c-0.36,0-0.765,0.039-1.056,0.102l-0.074,0.016v4.888h0.528
	v-2.193h0.647c0.57,0.026,0.848,0.294,0.991,0.955c0.131,0.62,0.23,1.035,0.315,1.189l0.026,0.049h0.558L32.191,65.833z
	 M29.725,61.475c0.107-0.019,0.307-0.046,0.594-0.046c0.547,0,1.198,0.162,1.198,0.935c0,0.576-0.442,0.949-1.127,0.949h-0.665
	V61.475z M37.416,63.951c0.141,0.026,0.297,0.032,0.488,0.032c0.632,0,1.156-0.2,1.474-0.563c0.241-0.264,0.358-0.598,0.358-1.021
	c0-0.412-0.138-0.76-0.397-1.003c-0.29-0.282-0.749-0.431-1.329-0.431c-0.347,0-0.699,0.031-1.045,0.093l-0.077,0.014v4.898h0.528
	V63.951z M37.416,61.477c0.103-0.017,0.296-0.041,0.58-0.041c0.453,0,1.212,0.13,1.212,0.999c0,0.694-0.453,1.077-1.276,1.077
	c-0.228,0-0.392-0.015-0.516-0.047V61.477z M41.546,61h-0.528v4.97h0.528V61z M44.803,61.471h1.561V61h-3.65v0.471h1.561v4.499
	h0.528V61.471z M48.634,61.471h1.561V61h-3.65v0.471h1.561v4.499h0.528V61.471z M51.918,66.041c1.114,0,1.612-0.707,1.612-1.407
	c0-0.8-0.505-1.17-1.265-1.477c-0.699-0.274-0.934-0.521-0.934-0.978c0-0.359,0.247-0.779,0.942-0.779
	c0.394,0,0.681,0.132,0.789,0.21l0.094,0.068l0.207-0.47l-0.067-0.044c-0.175-0.113-0.529-0.235-1.002-0.235
	c-0.86,0-1.484,0.55-1.484,1.307c0,0.643,0.409,1.09,1.288,1.408c0.656,0.247,0.911,0.535,0.911,1.026
	c0,0.546-0.417,0.899-1.062,0.899c-0.355,0-0.716-0.107-0.991-0.296l-0.091-0.062l-0.206,0.447l0.061,0.045
	C50.983,65.899,51.487,66.041,51.918,66.041 M56.203,66.005c0.742,0,1.26-0.157,1.587-0.483c0.252-0.269,0.38-0.599,0.38-0.98
	c0-0.672-0.43-1.071-0.869-1.244c0.413-0.22,0.677-0.625,0.677-1.062c0-0.359-0.107-0.636-0.325-0.846
	c-0.282-0.29-0.7-0.426-1.315-0.426c-0.34,0-0.691,0.039-0.987,0.11l-0.072,0.016v4.876l0.09,0.004
	c0.062,0.002,0.131,0.006,0.21,0.011C55.747,65.992,55.955,66.005,56.203,66.005 M55.808,63.564h0.509
	c0.308,0,1.311,0.072,1.311,0.985c0,0.857-0.83,0.985-1.325,0.985c-0.229,0-0.381-0.007-0.495-0.022V63.564z M55.808,61.467
	c0.095-0.016,0.252-0.031,0.509-0.031c0.759,0,1.127,0.269,1.127,0.821c0,0.497-0.425,0.843-1.034,0.843h-0.602V61.467z
	 M61.724,66.047c0.538,0,1.79-0.204,1.79-2.094v-2.954h-0.528v2.982c0,1.043-0.432,1.595-1.248,1.595
	c-0.758,0-1.176-0.567-1.176-1.595v-2.982h-0.528v3.003C60.034,65.302,60.649,66.047,61.724,66.047 M68.64,65.833
	c-0.1-0.193-0.199-0.595-0.347-1.268c-0.104-0.491-0.308-0.826-0.606-0.999c0.523-0.246,0.807-0.687,0.807-1.259
	c0-0.356-0.135-0.7-0.362-0.918c-0.297-0.29-0.728-0.425-1.356-0.425c-0.36,0-0.765,0.039-1.056,0.102l-0.074,0.016v4.888h0.528
	v-2.193h0.647c0.57,0.026,0.848,0.294,0.991,0.955c0.155,0.731,0.24,1.053,0.315,1.189l0.026,0.049h0.557L68.64,65.833z
	 M66.174,61.475c0.107-0.019,0.308-0.046,0.594-0.046c0.547,0,1.198,0.162,1.198,0.935c0,0.576-0.442,0.949-1.127,0.949h-0.665
	V61.475z M72.459,66.02c0.717,0,1.242-0.184,1.434-0.263l0.058-0.024v-2.32h-1.635v0.464h1.106v1.537
	c-0.144,0.066-0.412,0.134-0.906,0.134c-1.226,0-1.957-0.771-1.957-2.063c0-1.272,0.777-2.063,2.028-2.063
	c0.393,0,0.705,0.062,0.98,0.196l0.09,0.044l0.185-0.449l-0.078-0.039c-0.222-0.111-0.665-0.224-1.156-0.224
	c-1.79,0-2.591,1.281-2.591,2.549c0,0.766,0.251,1.448,0.688,1.87C71.156,65.807,71.73,66.02,72.459,66.02 M79.648,61H79.12v2.107
	h-2.452V61H76.14v4.97h0.528v-2.391h2.452v2.391h0.528V61z M86.148,61H85.69l-1.8,4.97h0.548l0.589-1.675h1.762l0.603,1.675h0.547
	L86.148,61z M85.745,62.336c0.065-0.199,0.118-0.366,0.165-0.528c0.045,0.162,0.097,0.336,0.169,0.545l0.536,1.471h-1.414
	L85.745,62.336z M92.41,65.833c-0.1-0.193-0.199-0.594-0.347-1.268c-0.105-0.491-0.308-0.826-0.606-0.999
	c0.523-0.246,0.807-0.687,0.807-1.259c0-0.356-0.135-0.7-0.361-0.918c-0.297-0.29-0.729-0.425-1.358-0.425
	c-0.359,0-0.764,0.039-1.055,0.102l-0.074,0.016v4.888h0.528v-2.193h0.648c0.569,0.026,0.847,0.294,0.99,0.955
	c0.132,0.62,0.23,1.035,0.315,1.189l0.026,0.049h0.558L92.41,65.833z M89.944,61.475c0.107-0.019,0.308-0.046,0.595-0.046
	c0.546,0,1.197,0.162,1.197,0.935c0,0.576-0.442,0.949-1.127,0.949h-0.665V61.475z M95.555,61.471h1.561V61h-3.65v0.471h1.561v4.499
	h0.528V61.471z M99.336,66.041c1.114,0,1.612-0.707,1.612-1.407c0-0.8-0.505-1.169-1.266-1.477
	c-0.698-0.274-0.933-0.521-0.933-0.978c0-0.359,0.246-0.779,0.942-0.779c0.394,0,0.682,0.132,0.789,0.21l0.095,0.068l0.205-0.47
	l-0.066-0.044c-0.174-0.113-0.529-0.235-1.002-0.235c-0.86,0-1.485,0.55-1.485,1.307c0,0.643,0.41,1.09,1.289,1.408
	c0.656,0.247,0.911,0.535,0.911,1.026c0,0.546-0.417,0.899-1.062,0.899c-0.355,0-0.716-0.107-0.991-0.296l-0.092-0.062l-0.205,0.447
	l0.061,0.045C98.4,65.899,98.904,66.041,99.336,66.041 M107.538,66.041c0.612,0,1.09-0.13,1.333-0.251l0.075-0.038l-0.165-0.446
	l-0.093,0.046c-0.27,0.132-0.657,0.21-1.036,0.21c-1.208,0-1.929-0.763-1.929-2.042c0-1.327,0.742-2.12,1.985-2.12
	c0.361,0,0.699,0.07,0.952,0.196l0.093,0.047l0.172-0.46l-0.075-0.038c-0.13-0.065-0.502-0.216-1.149-0.216
	c-1.507,0-2.52,1.039-2.52,2.584C105.181,65.379,106.451,66.041,107.538,66.041 M112.235,66.048c1.109,0,2.229-0.809,2.229-2.613
	c0-1.48-0.896-2.513-2.18-2.513c-1.321,0-2.243,1.074-2.243,2.612c0,1.48,0.899,2.514,2.187,2.514H112.235 M112.263,61.393
	c1.089,0,1.659,1.038,1.659,2.063c0,1.021-0.524,2.121-1.68,2.121c-1.089,0-1.659-1.035-1.659-2.057
	C110.583,62.461,111.102,61.393,112.263,61.393 M117.752,66.047c0.538,0,1.789-0.204,1.789-2.094v-2.954h-0.528v2.982
	c0,1.043-0.431,1.595-1.247,1.595c-0.758,0-1.176-0.567-1.176-1.595v-2.982h-0.529v3.003
	C116.061,65.302,116.678,66.047,117.752,66.047 M125.019,61h-0.514v2.478c0,0.61,0.006,1.074,0.031,1.548
	c-0.2-0.358-0.431-0.723-0.717-1.16L121.932,61h-0.464v4.97h0.514v-2.514c0-0.607-0.003-1.067-0.023-1.522
	c0.222,0.395,0.481,0.794,0.753,1.212l1.851,2.824h0.456V61z M129.043,66.041c0.612,0,1.09-0.13,1.333-0.251l0.075-0.038
	l-0.164-0.446l-0.093,0.046c-0.27,0.132-0.658,0.21-1.037,0.21c-1.208,0-1.929-0.763-1.929-2.042c0-1.327,0.743-2.12,1.986-2.12
	c0.36,0,0.698,0.07,0.951,0.196l0.093,0.047l0.173-0.46l-0.076-0.038c-0.13-0.065-0.501-0.216-1.149-0.216
	c-1.507,0-2.52,1.039-2.52,2.584C126.686,65.379,127.956,66.041,129.043,66.041 M132.77,61h-0.528v4.97h0.528V61z M137.496,65.498
	h-2.129V61h-0.528v4.97h2.657V65.498z"/>
<path id="tagline" class="st0" d="M72.95,75.91l-0.463,1.901h-2.279l2.389-8.215h2.925l2.449,8.215h-2.376l-0.524-1.901H72.95z
	 M74.767,74.289l-0.378-1.475c-0.122-0.463-0.28-1.133-0.402-1.621h-0.024c-0.122,0.488-0.244,1.158-0.366,1.621l-0.354,1.475
	H74.767z M78.691,77.812h2.206v-2.963c0-0.146,0.012-0.28,0.024-0.378c0.122-0.486,0.561-0.755,1.207-0.755
	c0.232,0,0.402,0.024,0.56,0.061v-2.06c-0.158-0.036-0.243-0.036-0.438-0.036c-0.524,0-1.28,0.305-1.597,1.219h-0.048l-0.086-1.085
	h-1.877c0.037,0.499,0.049,1.072,0.049,2.023V77.812z M83.87,70.694v1.122h-0.744v1.608h0.744v2.096c0,0.914,0.195,1.5,0.561,1.865
	c0.316,0.317,0.853,0.548,1.498,0.548c0.561,0,1.049-0.073,1.305-0.17v-1.67c-0.183,0.049-0.268,0.049-0.524,0.049
	c-0.536,0-0.695-0.292-0.695-1v-1.718h1.243v-1.608h-1.243v-1.707L83.87,70.694z M87.953,77.507c0.476,0.244,1.219,0.427,2.06,0.427
	c1.853,0,2.742-0.865,2.742-2.012c-0.012-0.852-0.463-1.474-1.645-1.852c-0.707-0.231-0.902-0.353-0.902-0.549
	c0-0.243,0.22-0.341,0.597-0.341c0.488,0,1.049,0.196,1.329,0.33l0.353-1.488c-0.39-0.17-1.048-0.34-1.779-0.34
	c-1.585,0-2.608,0.865-2.608,2.059c-0.012,0.694,0.438,1.414,1.767,1.828c0.646,0.208,0.78,0.293,0.78,0.512
	c0,0.232-0.183,0.329-0.658,0.329c-0.537,0-1.317-0.244-1.658-0.451L87.953,77.507z M96.594,77.812H98.8v-8.666h-2.206V77.812z
	 M102.871,77.945c-1.791,0-3.181-1.134-3.181-3.083c0-1.914,1.255-3.181,3.303-3.181c1.877,0,3.12,1.267,3.12,3.071
	c0,2.182-1.56,3.193-3.23,3.193H102.871z M102.932,76.397c0.597,0,0.914-0.621,0.914-1.584c0-0.829-0.268-1.584-0.914-1.584
	c-0.731,0-0.975,0.792-0.975,1.584c0,0.902,0.293,1.584,0.963,1.584H102.932z M113.023,71.816h-2.206v3.534
	c0,0.122-0.012,0.232-0.049,0.317c-0.085,0.231-0.304,0.511-0.706,0.511c-0.525,0-0.768-0.414-0.768-1.182v-3.18h-2.207v3.534
	c0,1.73,0.793,2.596,2.133,2.596c1.073,0,1.597-0.598,1.816-0.926h0.037l0.097,0.792h1.902c-0.025-0.512-0.049-1.195-0.049-2.048
	V71.816z M120.408,69.146v6.776c0,0.744,0.024,1.488,0.049,1.89h-1.963l-0.085-0.805h-0.024c-0.39,0.671-1.122,0.939-1.804,0.939
	c-1.389,0-2.547-1.207-2.547-3.084c-0.013-2.023,1.267-3.181,2.681-3.181c0.658,0,1.194,0.195,1.463,0.585h0.024v-3.12H120.408z
	 M118.202,74.411c0-0.085,0-0.195-0.012-0.28c-0.086-0.427-0.402-0.768-0.866-0.768c-0.731,0-1.06,0.658-1.06,1.438
	c0,0.926,0.451,1.401,1.048,1.401c0.451,0,0.78-0.316,0.853-0.719c0.037-0.121,0.037-0.255,0.037-0.402V74.411z M130,76.348
	c0,0.597,0.037,1.159,0.097,1.463h-1.986l-0.11-0.524h-0.049c-0.414,0.475-1.011,0.658-1.657,0.658c-1.231,0-1.987-0.89-1.987-1.889
	c0-1.609,1.451-2.328,3.486-2.328V73.68c0-0.244-0.183-0.512-0.987-0.512c-0.634,0-1.292,0.219-1.694,0.438l-0.378-1.377
	c0.378-0.208,1.243-0.548,2.486-0.548c2.06,0,2.779,1.146,2.779,2.645V76.348z M127.867,75.069c-0.902,0-1.401,0.243-1.401,0.78
	c0,0.377,0.243,0.573,0.621,0.573c0.317,0,0.646-0.22,0.756-0.549c0.024-0.097,0.024-0.207,0.024-0.317V75.069z M131.34,77.811
	h2.206v-3.4c0-0.159,0.012-0.329,0.061-0.439c0.098-0.231,0.293-0.524,0.719-0.524c0.537,0,0.768,0.402,0.768,1.096v3.267h2.206
	v-3.535c0-1.645-0.768-2.595-2.17-2.595c-0.999,0-1.584,0.584-1.803,0.902h-0.037l-0.098-0.768h-1.901
	c0.025,0.56,0.049,1.243,0.049,2.047V77.811z M144.723,69.146v6.776c0,0.744,0.024,1.488,0.049,1.89h-1.963l-0.085-0.805H142.7
	c-0.39,0.671-1.122,0.939-1.804,0.939c-1.389,0-2.547-1.207-2.547-3.084c-0.013-2.023,1.267-3.181,2.681-3.181
	c0.658,0,1.194,0.195,1.463,0.585h0.024v-3.12H144.723z M142.517,74.411c0-0.085,0-0.195-0.012-0.28
	c-0.086-0.427-0.402-0.768-0.866-0.768c-0.731,0-1.06,0.658-1.06,1.438c0,0.926,0.451,1.401,1.048,1.401
	c0.451,0,0.78-0.316,0.853-0.719c0.037-0.121,0.037-0.255,0.037-0.402V74.411z M153.351,76.069c-0.28,0.11-0.585,0.158-0.963,0.158
	c-0.78,0-1.45-0.463-1.45-1.438c-0.012-0.866,0.573-1.426,1.389-1.426c0.451,0,0.744,0.061,0.951,0.147l0.305-1.609
	c-0.427-0.147-0.951-0.208-1.377-0.208c-2.34,0-3.522,1.463-3.522,3.17c0,1.901,1.255,3.071,3.253,3.071
	c0.671,0,1.293-0.085,1.646-0.256L153.351,76.069z M154.789,77.812h2.206v-8.666h-2.206V77.812z M159.957,75.582
	c0.072,0.475,0.768,0.743,1.548,0.743c0.56,0,1.097-0.062,1.633-0.232l0.28,1.462c-0.719,0.281-1.499,0.378-2.243,0.378
	c-2.108,0-3.303-1.158-3.303-3.059c0-1.389,0.903-3.193,3.108-3.193c1.938,0,2.767,1.426,2.767,3.072
	c0,0.353-0.049,0.682-0.085,0.829H159.957z M161.724,74.094c0-0.341-0.159-0.975-0.853-0.975c-0.646,0-0.902,0.598-0.939,0.975
	H161.724z M170.072,76.348c0,0.597,0.036,1.159,0.097,1.463h-1.986l-0.11-0.524h-0.049c-0.414,0.475-1.011,0.658-1.657,0.658
	c-1.231,0-1.987-0.89-1.987-1.889c0-1.609,1.451-2.328,3.486-2.328V73.68c0-0.244-0.183-0.512-0.987-0.512
	c-0.634,0-1.292,0.219-1.694,0.438l-0.378-1.377c0.378-0.208,1.243-0.548,2.486-0.548c2.06,0,2.779,1.146,2.779,2.645V76.348z
	 M167.939,75.069c-0.902,0-1.401,0.243-1.401,0.78c0,0.377,0.243,0.573,0.621,0.573c0.317,0,0.646-0.22,0.756-0.549
	c0.024-0.097,0.024-0.207,0.024-0.317V75.069z M171.413,77.812h2.206v-2.963c0-0.146,0.012-0.28,0.024-0.378
	c0.122-0.486,0.561-0.755,1.207-0.755c0.232,0,0.402,0.024,0.561,0.061v-2.06c-0.159-0.036-0.244-0.036-0.439-0.036
	c-0.524,0-1.28,0.305-1.597,1.219h-0.048l-0.086-1.085h-1.877c0.037,0.499,0.049,1.072,0.049,2.023V77.812z"/>
<path id="mark" class="st1" d="M106.22,0C86.283,0,70.127,10.348,70.127,23.112c0,6.304,3.943,12.018,10.334,16.187L70.087,53.484
	l22.032-9.091c4.332,1.179,9.098,1.831,14.101,1.831c19.931,0,36.087-10.348,36.087-23.112C142.307,10.348,126.151,0,106.22,0"/>
<path id="letter-a" class="st2" d="M102.274,6.32h8.325l11.76,31.448h-8.545l-1.938-5.638h-10.968l-1.981,5.638h-8.413L102.274,6.32
	z M102.803,26.052h7.135l-3.48-11.011h-0.087L102.803,26.052z"/>
</svg>